{
  "asset" : {
    "generator" : "UE Viewer (umodel) build 1544 based",
    "version" : "2.0"
  },
  "scene" : 0,
  "scenes" : [
    {
      "nodes" : [ 0 ]
    }
  ],
  "nodes" : [
    {
      "name" : "Female_Hair_0348",
      "mesh" : 0,
      "skin" : 0,
      "children" : [ 1 ]
    },
    {
      "name" : "Root",
      "children" : [ 2 ],
      "translation" : [ 5.68434e-16, 0, 0 ],
      "rotation" : [ 3.06162e-17, -0, -0, 1 ]
    },
    {
      "name" : "Bip001",
      "children" : [ 3 ],
      "translation" : [ 2.41693e-09, 0.989638, -0.03489 ],
      "rotation" : [ -4.156e-39, 0.707106, -4.156e-39, -0.707107 ]
    },
    {
      "name" : "Bip001-Pelvis",
      "children" : [ 4, 42, 44 ],
      "translation" : [ 0, 0, -0 ],
      "rotation" : [ 0.531911, 0.465908, -0.465908, -0.531912 ]
    },
    {
      "name" : "Bip001-Spine",
      "children" : [ 5 ],
      "translation" : [ 0.0626634, 5.12059e-08, -0.00888381 ],
      "rotation" : [ 2.09401e-06, -0.0205486, -7.07502e-07, -0.999789 ]
    },
    {
      "name" : "Bip001-Spine1",
      "children" : [ 6 ],
      "translation" : [ 0.0846808, -1.86847e-10, 6.73485e-05 ],
      "rotation" : [ 6.44324e-15, 0.107231, 2.97415e-07, -0.994234 ]
    },
    {
      "name" : "Bip001-Spine2",
      "children" : [ 7, 30, 33, 36, 39 ],
      "translation" : [ 0.0865588, -4.08213e-10, 0.000147412 ],
      "rotation" : [ 2.46424e-09, 0.0810448, 2.16515e-07, -0.99671 ]
    },
    {
      "name" : "Bip001-Neck",
      "children" : [ 8 ],
      "translation" : [ 0.164851, -2.30259e-08, -0.00079735 ],
      "rotation" : [ 2.76264e-13, -0.190493, -5.28351e-07, -0.981689 ]
    },
    {
      "name" : "Bip001-Head",
      "children" : [ 9 ],
      "translation" : [ 0.0747543, -1.81194e-14, 5.05732e-09 ],
      "rotation" : [ -7.43658e-07, 0.0895748, 1.66943e-07, -0.99598 ]
    },
    {
      "name" : "HeadRoot",
      "children" : [ 10, 14, 16, 20, 23 ],
      "translation" : [ 0, -2.05818e-16, -2.38419e-09 ],
      "rotation" : [ 1.35228e-08, -4.29842e-15, -5.90413e-08, -1 ]
    },
    {
      "name" : "Bone_FR_00",
      "children" : [ 11 ],
      "translation" : [ 0.0614538, -0.063344, -0.0613304 ],
      "rotation" : [ 0.00915835, -0.769552, 0.638316, 0.0160556 ]
    },
    {
      "name" : "Bone_FR_01",
      "children" : [ 12 ],
      "translation" : [ 0.0399777, 4.1027e-09, -1.72188e-08 ],
      "rotation" : [ -0.00202427, -0.07404, -0.0253094, -0.996932 ]
    },
    {
      "name" : "Bone_FR_02",
      "children" : [ 13 ],
      "translation" : [ 0.0441202, 6.55988e-09, 9.13346e-08 ],
      "rotation" : [ -0.0219719, -0.188096, -0.150677, -0.970275 ]
    },
    {
      "name" : "Tail-Bone_FR_02",
      "translation" : [ 0.0580645, 5.74392e-08, -2.5363e-08 ],
      "rotation" : [ -2.24157e-08, 7.81735e-08, 1.11677e-07, -1 ]
    },
    {
      "name" : "Bone_FF_02",
      "children" : [ 15 ],
      "translation" : [ 0.0547645, -0.0499147, -0.0771977 ],
      "rotation" : [ -0.177853, -0.733784, 0.652491, 0.0646878 ]
    },
    {
      "name" : "Tail-Bone_FF_02",
      "translation" : [ 0.0355731, 1.70017e-07, -9.82065e-09 ],
      "rotation" : [ -0.000304657, 0.00042436, 0.0332651, -0.999446 ]
    },
    {
      "name" : "Bone_FL_00",
      "children" : [ 17 ],
      "translation" : [ 0.0691042, 0.0584515, -0.0606518 ],
      "rotation" : [ 0.00912128, -0.766517, 0.638481, 0.0686294 ]
    },
    {
      "name" : "Bone_FL_01",
      "children" : [ 18 ],
      "translation" : [ 0.0393465, 8.97836e-10, 3.47357e-08 ],
      "rotation" : [ 0.00154133, 0.0810556, -0.019935, -0.996509 ]
    },
    {
      "name" : "Bone_FL_02",
      "children" : [ 19 ],
      "translation" : [ 0.0487527, 8.42871e-09, -9.75989e-07 ],
      "rotation" : [ 0.0212189, 0.218994, -0.104265, -0.969907 ]
    },
    {
      "name" : "Tail-Bone_FL_02",
      "translation" : [ 0.0614623, 4.49743e-08, 1.26521e-07 ],
      "rotation" : [ 3.67919e-07, -1.5695e-07, -4.21563e-08, -1 ]
    },
    {
      "name" : "Bone_F_00",
      "children" : [ 21 ],
      "translation" : [ 0.0966505, -0.0150508, -0.112354 ],
      "rotation" : [ -0.0604853, -0.743635, 0.630378, 0.214409 ]
    },
    {
      "name" : "Bone_F_01",
      "children" : [ 22 ],
      "translation" : [ 0.0272049, -1.28367e-08, -2.74135e-08 ],
      "rotation" : [ 0.0834853, -0.273588, 0.0113617, -0.95815 ]
    },
    {
      "name" : "Tail-Bone_F_01",
      "translation" : [ 0.0483137, 3.34965e-08, 1.26803e-07 ],
      "rotation" : [ -1.0096e-07, 4.0397e-08, 7.29901e-08, -1 ]
    },
    {
      "name" : "Bone_B_Hair01",
      "children" : [ 24 ],
      "translation" : [ 0.171194, 0.00453839, 0.126855 ],
      "rotation" : [ 0.248886, -4.84364e-05, 0.968523, -0.00442319 ]
    },
    {
      "name" : "Bone_B_Hair02",
      "children" : [ 25 ],
      "translation" : [ 0.12563, 5.07007e-09, 3.07472e-07 ],
      "rotation" : [ -0.00113314, -0.219151, 0.0440107, -0.974697 ]
    },
    {
      "name" : "Bone_B_Hair03",
      "children" : [ 26 ],
      "translation" : [ 0.181053, 4.09712e-08, -4.78295e-09 ],
      "rotation" : [ -0.0106519, 0.0435115, -0.0819789, -0.995627 ]
    },
    {
      "name" : "Bone_B_Hair04",
      "children" : [ 27 ],
      "translation" : [ 0.185992, 2.01681e-08, 1.78848e-09 ],
      "rotation" : [ -0.0526509, 0.219025, -0.157647, -0.961459 ]
    },
    {
      "name" : "Bone_B_Hair05",
      "children" : [ 28 ],
      "translation" : [ 0.202041, 2.86582e-08, 2.50295e-08 ],
      "rotation" : [ -0.0463309, -0.0698325, 0.223132, -0.971179 ]
    },
    {
      "name" : "Bone_B_Hair06",
      "children" : [ 29 ],
      "translation" : [ 0.170295, 1.98255e-08, -9.54962e-08 ],
      "rotation" : [ -0.00649916, -0.356058, 0.363032, -0.861039 ]
    },
    {
      "name" : "Tail-Bone_B_Hair06",
      "translation" : [ 0.181844, 1.11801e-07, 1.675e-08 ],
      "rotation" : [ 0.00813501, 0.0183065, -0.000148883, -0.999799 ]
    },
    {
      "name" : "Bip001-L-Clavicle",
      "children" : [ 31 ],
      "translation" : [ 0.151245, 0.0088413, -0.00644423 ],
      "rotation" : [ -0.611638, -0.787468, -0.0603455, 0.0463715 ]
    },
    {
      "name" : "Bip001-L-UpperArm",
      "children" : [ 32 ],
      "translation" : [ 0.099455, 0, -1.90735e-08 ],
      "rotation" : [ -0.136872, 0.0134948, 0.193917, -0.971329 ]
    },
    {
      "name" : "Bip001-L-Forearm",
      "translation" : [ 0.219396, 0, -9.53674e-09 ],
      "rotation" : [ 6.87399e-18, 0.136451, 9.4682e-19, -0.990647 ]
    },
    {
      "name" : "Bip001-R-Clavicle",
      "children" : [ 34 ],
      "translation" : [ 0.151245, -0.00884127, -0.00644427 ],
      "rotation" : [ 0.611639, -0.787469, 0.0603433, 0.0463698 ]
    },
    {
      "name" : "Bip001-R-UpperArm",
      "children" : [ 35 ],
      "translation" : [ 0.0994549, 0, -3.55271e-17 ],
      "rotation" : [ 0.136872, 0.0134948, -0.193917, -0.971329 ]
    },
    {
      "name" : "Bip001-R-Forearm",
      "translation" : [ 0.219396, 0, -0 ],
      "rotation" : [ -2.13225e-17, 0.136451, 5.30983e-17, -0.990647 ]
    },
    {
      "name" : "Bip001-R-Chest",
      "children" : [ 37, 38 ],
      "translation" : [ 0.0257782, -0.0332835, -0.0109596 ],
      "rotation" : [ -0.730306, 0.0996237, 0.66886, -0.0967171 ]
    },
    {
      "name" : "Bip001-RDO-Chest",
      "translation" : [ -7.6294e-08, 1.7643e-07, 3.8147e-07 ],
      "rotation" : [ -3.3343e-08, 0.206572, -2.38816e-07, -0.978431 ]
    },
    {
      "name" : "Bip001-RUP-Chest",
      "translation" : [ -7.6294e-08, 1.7643e-07, 3.8147e-07 ],
      "rotation" : [ 4.13041e-07, -0.210292, -3.38434e-07, -0.977639 ]
    },
    {
      "name" : "Bip001-L-Chest",
      "children" : [ 40, 41 ],
      "translation" : [ 0.0257782, 0.0332799, -0.0109595 ],
      "rotation" : [ -0.0967185, -0.66886, -0.0996241, -0.730306 ]
    },
    {
      "name" : "Bip001-LDO-Chest",
      "translation" : [ -1.14441e-07, -8.58307e-08, -1.52588e-07 ],
      "rotation" : [ 1.84649e-07, -0.206571, 1.35205e-07, -0.978432 ]
    },
    {
      "name" : "Bip001-LUP-Chest",
      "translation" : [ -3.8147e-08, 1.77636e-17, -0 ],
      "rotation" : [ 4.34367e-07, 0.210293, -1.50438e-07, -0.977638 ]
    },
    {
      "name" : "Bip001-L-Thigh",
      "children" : [ 43 ],
      "translation" : [ -7.62939e-08, 0.072399, -1.52588e-07 ],
      "rotation" : [ -0.0840791, 0.0126618, 0.99625, 0.0160132 ]
    },
    {
      "name" : "Bip001-L-Calf",
      "translation" : [ 0.41493, 0, -2.38419e-09 ],
      "rotation" : [ 4.85431e-18, 0.0593141, -4.92491e-18, -0.998239 ]
    },
    {
      "name" : "Bip001-R-Thigh",
      "children" : [ 45 ],
      "translation" : [ 1.52588e-07, -0.072399, 5.72204e-08 ],
      "rotation" : [ -0.084079, -0.0126605, 0.99625, -0.0160148 ]
    },
    {
      "name" : "Bip001-R-Calf",
      "translation" : [ 0.41493, 0, -2.38419e-09 ],
      "rotation" : [ -1.6181e-18, 0.0593141, 1.64164e-18, -0.998239 ]
    }
  ],
  "skins" : [
    {
      "inverseBindMatrices" : 0,
      "skeleton" : 1,
      "joints" : [
        1,2,3,4,5,6,7,8,9,10,11,12,13,14,15,16,17,18,19,20,21,22,23,24,25,26,27,28,29,30,31,32,
        33,34,35,36,37,38,39,40,41,42,43,44,45
      ]
    }
  ],
  "materials" : [
    {
      "name" : "MI_Female_Hair_0348_Equip01",
      "pbrMetallicRoughness" : {
        "baseColorFactor" : [ 0.3, 0.3, 0.3, 1.0 ],
        "metallicFactor" : 0.1,
        "roughnessFactor" : 0.5
      }
    },
    {
      "name" : "MI_Female_Hair_0348_Equip02",
      "pbrMetallicRoughness" : {
        "baseColorFactor" : [ 0.9, 0.3, 0.3, 1.0 ],
        "metallicFactor" : 0.1,
        "roughnessFactor" : 0.5
      }
    },
    {
      "name" : "MI_Female_Hair_0348_Equip02",
      "pbrMetallicRoughness" : {
        "baseColorFactor" : [ 0.3, 0.9, 0.3, 1.0 ],
        "metallicFactor" : 0.1,
        "roughnessFactor" : 0.5
      }
    },
    {
      "name" : "MI_Female_Hair_0348_Equip01",
      "pbrMetallicRoughness" : {
        "baseColorFactor" : [ 0.3, 0.3, 0.9, 1.0 ],
        "metallicFactor" : 0.1,
        "roughnessFactor" : 0.5
      }
    },
    {
      "name" : "MI_Female_Hair_0348_Equip02",
      "pbrMetallicRoughness" : {
        "baseColorFactor" : [ 0.9, 0.9, 0.9, 1.0 ],
        "metallicFactor" : 0.1,
        "roughnessFactor" : 0.5
      }
    },
    {
      "name" : "MI_Female_Hair_0348_Equip03",
      "pbrMetallicRoughness" : {
        "baseColorFactor" : [ 0.9, 0.9, 0.3, 1.0 ],
        "metallicFactor" : 0.1,
        "roughnessFactor" : 0.5
      }
    },
    {
      "name" : "MI_Female_Hair_0348_Equip02",
      "pbrMetallicRoughness" : {
        "baseColorFactor" : [ 0.9, 0.3, 0.9, 1.0 ],
        "metallicFactor" : 0.1,
        "roughnessFactor" : 0.5
      }
    },
    {
      "name" : "MI_Female_Hair_0348_Equip03",
      "pbrMetallicRoughness" : {
        "baseColorFactor" : [ 0.3, 0.9, 0.9, 1.0 ],
        "metallicFactor" : 0.1,
        "roughnessFactor" : 0.5
      }
    },
    {
      "name" : "MI_Female_Hair_0348_Equip02",
      "pbrMetallicRoughness" : {
        "baseColorFactor" : [ 1, 0.3, 0.3, 1.0 ],
        "metallicFactor" : 0.1,
        "roughnessFactor" : 0.5
      }
    },
    {
      "name" : "MI_Female_Hair_0348_Equip02",
      "pbrMetallicRoughness" : {
        "baseColorFactor" : [ 0.6, 0.3, 0.3, 1.0 ],
        "metallicFactor" : 0.1,
        "roughnessFactor" : 0.5
      }
    },
    {
      "name" : "MI_Female_Hair_0348_Equip03",
      "pbrMetallicRoughness" : {
        "baseColorFactor" : [ 1, 0.9, 0.3, 1.0 ],
        "metallicFactor" : 0.1,
        "roughnessFactor" : 0.5
      }
    },
    {
      "name" : "MI_Female_Hair_0348_Equip02",
      "pbrMetallicRoughness" : {
        "baseColorFactor" : [ 1, 0.3, 0.9, 1.0 ],
        "metallicFactor" : 0.1,
        "roughnessFactor" : 0.5
      }
    },
    {
      "name" : "MI_Female_Hair_0348_Equip03",
      "pbrMetallicRoughness" : {
        "baseColorFactor" : [ 0.6, 0.9, 0.9, 1.0 ],
        "metallicFactor" : 0.1,
        "roughnessFactor" : 0.5
      }
    },
    {
      "name" : "MI_Female_Hair_0348_Equip02",
      "pbrMetallicRoughness" : {
        "baseColorFactor" : [ 0.6, 0.9, 0.3, 1.0 ],
        "metallicFactor" : 0.1,
        "roughnessFactor" : 0.5
      }
    },
    {
      "name" : "MI_Female_Hair_0348_Equip02",
      "pbrMetallicRoughness" : {
        "baseColorFactor" : [ 0.6, 0.3, 0.9, 1.0 ],
        "metallicFactor" : 0.1,
        "roughnessFactor" : 0.5
      }
    },
    {
      "name" : "MI_Female_Hair_0348_Equip02",
      "pbrMetallicRoughness" : {
        "baseColorFactor" : [ 1, 0.9, 0.9, 1.0 ],
        "metallicFactor" : 0.1,
        "roughnessFactor" : 0.5
      }
    },
    {
      "name" : "MI_Female_Hair_0348_Equip03",
      "pbrMetallicRoughness" : {
        "baseColorFactor" : [ 0.3, 1, 0.3, 1.0 ],
        "metallicFactor" : 0.1,
        "roughnessFactor" : 0.5
      }
    },
    {
      "name" : "MI_Female_Hair_0348_Equip02",
      "pbrMetallicRoughness" : {
        "baseColorFactor" : [ 0.9, 1, 0.3, 1.0 ],
        "metallicFactor" : 0.1,
        "roughnessFactor" : 0.5
      }
    },
    {
      "name" : "MI_Female_Hair_0348_Equip03",
      "pbrMetallicRoughness" : {
        "baseColorFactor" : [ 0.3, 0.6, 0.3, 1.0 ],
        "metallicFactor" : 0.1,
        "roughnessFactor" : 0.5
      }
    }
  ],
  "meshes" : [
    {
      "primitives" : [
        {
          "attributes" : {
            "POSITION" : 2,
            "NORMAL" : 3,
            "TANGENT" : 4,
            "COLOR_0" : 5,
            "JOINTS_0" : 6,
            "WEIGHTS_0" : 7,
            "TEXCOORD_0" : 8,
            "TEXCOORD_1" : 9
          },
          "indices" : 1,
          "material" : 0
        },
        {
          "attributes" : {
            "POSITION" : 11,
            "NORMAL" : 12,
            "TANGENT" : 13,
            "COLOR_0" : 14,
            "JOINTS_0" : 15,
            "WEIGHTS_0" : 16,
            "TEXCOORD_0" : 17,
            "TEXCOORD_1" : 18
          },
          "indices" : 10,
          "material" : 1
        },
        {
          "attributes" : {
            "POSITION" : 20,
            "NORMAL" : 21,
            "TANGENT" : 22,
            "COLOR_0" : 23,
            "JOINTS_0" : 24,
            "WEIGHTS_0" : 25,
            "TEXCOORD_0" : 26,
            "TEXCOORD_1" : 27
          },
          "indices" : 19,
          "material" : 2
        },
        {
          "attributes" : {
            "POSITION" : 29,
            "NORMAL" : 30,
            "TANGENT" : 31,
            "COLOR_0" : 32,
            "JOINTS_0" : 33,
            "WEIGHTS_0" : 34,
            "TEXCOORD_0" : 35,
            "TEXCOORD_1" : 36
          },
          "indices" : 28,
          "material" : 3
        },
        {
          "attributes" : {
            "POSITION" : 38,
            "NORMAL" : 39,
            "TANGENT" : 40,
            "COLOR_0" : 41,
            "JOINTS_0" : 42,
            "WEIGHTS_0" : 43,
            "TEXCOORD_0" : 44,
            "TEXCOORD_1" : 45
          },
          "indices" : 37,
          "material" : 4
        },
        {
          "attributes" : {
            "POSITION" : 47,
            "NORMAL" : 48,
            "TANGENT" : 49,
            "COLOR_0" : 50,
            "JOINTS_0" : 51,
            "WEIGHTS_0" : 52,
            "TEXCOORD_0" : 53,
            "TEXCOORD_1" : 54
          },
          "indices" : 46,
          "material" : 5
        },
        {
          "attributes" : {
            "POSITION" : 56,
            "NORMAL" : 57,
            "TANGENT" : 58,
            "COLOR_0" : 59,
            "JOINTS_0" : 60,
            "WEIGHTS_0" : 61,
            "TEXCOORD_0" : 62,
            "TEXCOORD_1" : 63
          },
          "indices" : 55,
          "material" : 6
        },
        {
          "attributes" : {
            "POSITION" : 65,
            "NORMAL" : 66,
            "TANGENT" : 67,
            "COLOR_0" : 68,
            "JOINTS_0" : 69,
            "WEIGHTS_0" : 70,
            "TEXCOORD_0" : 71,
            "TEXCOORD_1" : 72
          },
          "indices" : 64,
          "material" : 7
        },
        {
          "attributes" : {
            "POSITION" : 74,
            "NORMAL" : 75,
            "TANGENT" : 76,
            "COLOR_0" : 77,
            "JOINTS_0" : 78,
            "WEIGHTS_0" : 79,
            "TEXCOORD_0" : 80,
            "TEXCOORD_1" : 81
          },
          "indices" : 73,
          "material" : 8
        },
        {
          "attributes" : {
            "POSITION" : 83,
            "NORMAL" : 84,
            "TANGENT" : 85,
            "COLOR_0" : 86,
            "JOINTS_0" : 87,
            "WEIGHTS_0" : 88,
            "TEXCOORD_0" : 89,
            "TEXCOORD_1" : 90
          },
          "indices" : 82,
          "material" : 9
        },
        {
          "attributes" : {
            "POSITION" : 92,
            "NORMAL" : 93,
            "TANGENT" : 94,
            "COLOR_0" : 95,
            "JOINTS_0" : 96,
            "WEIGHTS_0" : 97,
            "TEXCOORD_0" : 98,
            "TEXCOORD_1" : 99
          },
          "indices" : 91,
          "material" : 10
        },
        {
          "attributes" : {
            "POSITION" : 101,
            "NORMAL" : 102,
            "TANGENT" : 103,
            "COLOR_0" : 104,
            "JOINTS_0" : 105,
            "WEIGHTS_0" : 106,
            "TEXCOORD_0" : 107,
            "TEXCOORD_1" : 108
          },
          "indices" : 100,
          "material" : 11
        },
        {
          "attributes" : {
            "POSITION" : 110,
            "NORMAL" : 111,
            "TANGENT" : 112,
            "COLOR_0" : 113,
            "JOINTS_0" : 114,
            "WEIGHTS_0" : 115,
            "TEXCOORD_0" : 116,
            "TEXCOORD_1" : 117
          },
          "indices" : 109,
          "material" : 12
        },
        {
          "attributes" : {
            "POSITION" : 119,
            "NORMAL" : 120,
            "TANGENT" : 121,
            "COLOR_0" : 122,
            "JOINTS_0" : 123,
            "WEIGHTS_0" : 124,
            "TEXCOORD_0" : 125,
            "TEXCOORD_1" : 126
          },
          "indices" : 118,
          "material" : 13
        },
        {
          "attributes" : {
            "POSITION" : 128,
            "NORMAL" : 129,
            "TANGENT" : 130,
            "COLOR_0" : 131,
            "JOINTS_0" : 132,
            "WEIGHTS_0" : 133,
            "TEXCOORD_0" : 134,
            "TEXCOORD_1" : 135
          },
          "indices" : 127,
          "material" : 14
        },
        {
          "attributes" : {
            "POSITION" : 137,
            "NORMAL" : 138,
            "TANGENT" : 139,
            "COLOR_0" : 140,
            "JOINTS_0" : 141,
            "WEIGHTS_0" : 142,
            "TEXCOORD_0" : 143,
            "TEXCOORD_1" : 144
          },
          "indices" : 136,
          "material" : 15
        },
        {
          "attributes" : {
            "POSITION" : 146,
            "NORMAL" : 147,
            "TANGENT" : 148,
            "COLOR_0" : 149,
            "JOINTS_0" : 150,
            "WEIGHTS_0" : 151,
            "TEXCOORD_0" : 152,
            "TEXCOORD_1" : 153
          },
          "indices" : 145,
          "material" : 16
        },
        {
          "attributes" : {
            "POSITION" : 155,
            "NORMAL" : 156,
            "TANGENT" : 157,
            "COLOR_0" : 158,
            "JOINTS_0" : 159,
            "WEIGHTS_0" : 160,
            "TEXCOORD_0" : 161,
            "TEXCOORD_1" : 162
          },
          "indices" : 154,
          "material" : 17
        },
        {
          "attributes" : {
            "POSITION" : 164,
            "NORMAL" : 165,
            "TANGENT" : 166,
            "COLOR_0" : 167,
            "JOINTS_0" : 168,
            "WEIGHTS_0" : 169,
            "TEXCOORD_0" : 170,
            "TEXCOORD_1" : 171
          },
          "indices" : 163,
          "material" : 18
        }
      ],
      "name" : "Female_Hair_0348"
    }
  ],
  "buffers" : [
    {
      "uri" : "Female_Hair_0348.bin",
      "byteLength" : 1577620
    }
  ],
  "bufferViews" : [
    {
      "buffer" : 0,
      "byteOffset" : 0,
      "byteLength" : 2880
    },
    {
      "buffer" : 0,
      "byteOffset" : 2880,
      "byteLength" : 20532
    },
    {
      "buffer" : 0,
      "byteOffset" : 23412,
      "byteLength" : 30564
    },
    {
      "buffer" : 0,
      "byteOffset" : 53976,
      "byteLength" : 30564
    },
    {
      "buffer" : 0,
      "byteOffset" : 84540,
      "byteLength" : 40752
    },
    {
      "buffer" : 0,
      "byteOffset" : 125292,
      "byteLength" : 10188
    },
    {
      "buffer" : 0,
      "byteOffset" : 135480,
      "byteLength" : 20376
    },
    {
      "buffer" : 0,
      "byteOffset" : 155856,
      "byteLength" : 10188
    },
    {
      "buffer" : 0,
      "byteOffset" : 166044,
      "byteLength" : 20376
    },
    {
      "buffer" : 0,
      "byteOffset" : 186420,
      "byteLength" : 20376
    },
    {
      "buffer" : 0,
      "byteOffset" : 206796,
      "byteLength" : 21636
    },
    {
      "buffer" : 0,
      "byteOffset" : 228432,
      "byteLength" : 43092
    },
    {
      "buffer" : 0,
      "byteOffset" : 271524,
      "byteLength" : 43092
    },
    {
      "buffer" : 0,
      "byteOffset" : 314616,
      "byteLength" : 57456
    },
    {
      "buffer" : 0,
      "byteOffset" : 372072,
      "byteLength" : 14364
    },
    {
      "buffer" : 0,
      "byteOffset" : 386436,
      "byteLength" : 28728
    },
    {
      "buffer" : 0,
      "byteOffset" : 415164,
      "byteLength" : 14364
    },
    {
      "buffer" : 0,
      "byteOffset" : 429528,
      "byteLength" : 28728
    },
    {
      "buffer" : 0,
      "byteOffset" : 458256,
      "byteLength" : 28728
    },
    {
      "buffer" : 0,
      "byteOffset" : 486984,
      "byteLength" : 9264
    },
    {
      "buffer" : 0,
      "byteOffset" : 496248,
      "byteLength" : 16788
    },
    {
      "buffer" : 0,
      "byteOffset" : 513036,
      "byteLength" : 16788
    },
    {
      "buffer" : 0,
      "byteOffset" : 529824,
      "byteLength" : 22384
    },
    {
      "buffer" : 0,
      "byteOffset" : 552208,
      "byteLength" : 5596
    },
    {
      "buffer" : 0,
      "byteOffset" : 557804,
      "byteLength" : 11192
    },
    {
      "buffer" : 0,
      "byteOffset" : 568996,
      "byteLength" : 5596
    },
    {
      "buffer" : 0,
      "byteOffset" : 574592,
      "byteLength" : 11192
    },
    {
      "buffer" : 0,
      "byteOffset" : 585784,
      "byteLength" : 11192
    },
    {
      "buffer" : 0,
      "byteOffset" : 596976,
      "byteLength" : 11708
    },
    {
      "buffer" : 0,
      "byteOffset" : 608684,
      "byteLength" : 18852
    },
    {
      "buffer" : 0,
      "byteOffset" : 627536,
      "byteLength" : 18852
    },
    {
      "buffer" : 0,
      "byteOffset" : 646388,
      "byteLength" : 25136
    },
    {
      "buffer" : 0,
      "byteOffset" : 671524,
      "byteLength" : 6284
    },
    {
      "buffer" : 0,
      "byteOffset" : 677808,
      "byteLength" : 12568
    },
    {
      "buffer" : 0,
      "byteOffset" : 690376,
      "byteLength" : 6284
    },
    {
      "buffer" : 0,
      "byteOffset" : 696660,
      "byteLength" : 12568
    },
    {
      "buffer" : 0,
      "byteOffset" : 709228,
      "byteLength" : 12568
    },
    {
      "buffer" : 0,
      "byteOffset" : 721796,
      "byteLength" : 11240
    },
    {
      "buffer" : 0,
      "byteOffset" : 733036,
      "byteLength" : 22368
    },
    {
      "buffer" : 0,
      "byteOffset" : 755404,
      "byteLength" : 22368
    },
    {
      "buffer" : 0,
      "byteOffset" : 777772,
      "byteLength" : 29824
    },
    {
      "buffer" : 0,
      "byteOffset" : 807596,
      "byteLength" : 7456
    },
    {
      "buffer" : 0,
      "byteOffset" : 815052,
      "byteLength" : 14912
    },
    {
      "buffer" : 0,
      "byteOffset" : 829964,
      "byteLength" : 7456
    },
    {
      "buffer" : 0,
      "byteOffset" : 837420,
      "byteLength" : 14912
    },
    {
      "buffer" : 0,
      "byteOffset" : 852332,
      "byteLength" : 14912
    },
    {
      "buffer" : 0,
      "byteOffset" : 867244,
      "byteLength" : 2244
    },
    {
      "buffer" : 0,
      "byteOffset" : 869488,
      "byteLength" : 4512
    },
    {
      "buffer" : 0,
      "byteOffset" : 874000,
      "byteLength" : 4512
    },
    {
      "buffer" : 0,
      "byteOffset" : 878512,
      "byteLength" : 6016
    },
    {
      "buffer" : 0,
      "byteOffset" : 884528,
      "byteLength" : 1504
    },
    {
      "buffer" : 0,
      "byteOffset" : 886032,
      "byteLength" : 3008
    },
    {
      "buffer" : 0,
      "byteOffset" : 889040,
      "byteLength" : 1504
    },
    {
      "buffer" : 0,
      "byteOffset" : 890544,
      "byteLength" : 3008
    },
    {
      "buffer" : 0,
      "byteOffset" : 893552,
      "byteLength" : 3008
    },
    {
      "buffer" : 0,
      "byteOffset" : 896560,
      "byteLength" : 8120
    },
    {
      "buffer" : 0,
      "byteOffset" : 904680,
      "byteLength" : 16080
    },
    {
      "buffer" : 0,
      "byteOffset" : 920760,
      "byteLength" : 16080
    },
    {
      "buffer" : 0,
      "byteOffset" : 936840,
      "byteLength" : 21440
    },
    {
      "buffer" : 0,
      "byteOffset" : 958280,
      "byteLength" : 5360
    },
    {
      "buffer" : 0,
      "byteOffset" : 963640,
      "byteLength" : 10720
    },
    {
      "buffer" : 0,
      "byteOffset" : 974360,
      "byteLength" : 5360
    },
    {
      "buffer" : 0,
      "byteOffset" : 979720,
      "byteLength" : 10720
    },
    {
      "buffer" : 0,
      "byteOffset" : 990440,
      "byteLength" : 10720
    },
    {
      "buffer" : 0,
      "byteOffset" : 1001160,
      "byteLength" : 1248
    },
    {
      "buffer" : 0,
      "byteOffset" : 1002408,
      "byteLength" : 2664
    },
    {
      "buffer" : 0,
      "byteOffset" : 1005072,
      "byteLength" : 2664
    },
    {
      "buffer" : 0,
      "byteOffset" : 1007736,
      "byteLength" : 3552
    },
    {
      "buffer" : 0,
      "byteOffset" : 1011288,
      "byteLength" : 888
    },
    {
      "buffer" : 0,
      "byteOffset" : 1012176,
      "byteLength" : 1776
    },
    {
      "buffer" : 0,
      "byteOffset" : 1013952,
      "byteLength" : 888
    },
    {
      "buffer" : 0,
      "byteOffset" : 1014840,
      "byteLength" : 1776
    },
    {
      "buffer" : 0,
      "byteOffset" : 1016616,
      "byteLength" : 1776
    },
    {
      "buffer" : 0,
      "byteOffset" : 1018392,
      "byteLength" : 2144
    },
    {
      "buffer" : 0,
      "byteOffset" : 1020536,
      "byteLength" : 4620
    },
    {
      "buffer" : 0,
      "byteOffset" : 1025156,
      "byteLength" : 4620
    },
    {
      "buffer" : 0,
      "byteOffset" : 1029776,
      "byteLength" : 6160
    },
    {
      "buffer" : 0,
      "byteOffset" : 1035936,
      "byteLength" : 1540
    },
    {
      "buffer" : 0,
      "byteOffset" : 1037476,
      "byteLength" : 3080
    },
    {
      "buffer" : 0,
      "byteOffset" : 1040556,
      "byteLength" : 1540
    },
    {
      "buffer" : 0,
      "byteOffset" : 1042096,
      "byteLength" : 3080
    },
    {
      "buffer" : 0,
      "byteOffset" : 1045176,
      "byteLength" : 3080
    },
    {
      "buffer" : 0,
      "byteOffset" : 1048256,
      "byteLength" : 6140
    },
    {
      "buffer" : 0,
      "byteOffset" : 1054396,
      "byteLength" : 11388
    },
    {
      "buffer" : 0,
      "byteOffset" : 1065784,
      "byteLength" : 11388
    },
    {
      "buffer" : 0,
      "byteOffset" : 1077172,
      "byteLength" : 15184
    },
    {
      "buffer" : 0,
      "byteOffset" : 1092356,
      "byteLength" : 3796
    },
    {
      "buffer" : 0,
      "byteOffset" : 1096152,
      "byteLength" : 7592
    },
    {
      "buffer" : 0,
      "byteOffset" : 1103744,
      "byteLength" : 3796
    },
    {
      "buffer" : 0,
      "byteOffset" : 1107540,
      "byteLength" : 7592
    },
    {
      "buffer" : 0,
      "byteOffset" : 1115132,
      "byteLength" : 7592
    },
    {
      "buffer" : 0,
      "byteOffset" : 1122724,
      "byteLength" : 1080
    },
    {
      "buffer" : 0,
      "byteOffset" : 1123804,
      "byteLength" : 2328
    },
    {
      "buffer" : 0,
      "byteOffset" : 1126132,
      "byteLength" : 2328
    },
    {
      "buffer" : 0,
      "byteOffset" : 1128460,
      "byteLength" : 3104
    },
    {
      "buffer" : 0,
      "byteOffset" : 1131564,
      "byteLength" : 776
    },
    {
      "buffer" : 0,
      "byteOffset" : 1132340,
      "byteLength" : 1552
    },
    {
      "buffer" : 0,
      "byteOffset" : 1133892,
      "byteLength" : 776
    },
    {
      "buffer" : 0,
      "byteOffset" : 1134668,
      "byteLength" : 1552
    },
    {
      "buffer" : 0,
      "byteOffset" : 1136220,
      "byteLength" : 1552
    },
    {
      "buffer" : 0,
      "byteOffset" : 1137772,
      "byteLength" : 4208
    },
    {
      "buffer" : 0,
      "byteOffset" : 1141980,
      "byteLength" : 8244
    },
    {
      "buffer" : 0,
      "byteOffset" : 1150224,
      "byteLength" : 8244
    },
    {
      "buffer" : 0,
      "byteOffset" : 1158468,
      "byteLength" : 10992
    },
    {
      "buffer" : 0,
      "byteOffset" : 1169460,
      "byteLength" : 2748
    },
    {
      "buffer" : 0,
      "byteOffset" : 1172208,
      "byteLength" : 5496
    },
    {
      "buffer" : 0,
      "byteOffset" : 1177704,
      "byteLength" : 2748
    },
    {
      "buffer" : 0,
      "byteOffset" : 1180452,
      "byteLength" : 5496
    },
    {
      "buffer" : 0,
      "byteOffset" : 1185948,
      "byteLength" : 5496
    },
    {
      "buffer" : 0,
      "byteOffset" : 1191444,
      "byteLength" : 1128
    },
    {
      "buffer" : 0,
      "byteOffset" : 1192572,
      "byteLength" : 2304
    },
    {
      "buffer" : 0,
      "byteOffset" : 1194876,
      "byteLength" : 2304
    },
    {
      "buffer" : 0,
      "byteOffset" : 1197180,
      "byteLength" : 3072
    },
    {
      "buffer" : 0,
      "byteOffset" : 1200252,
      "byteLength" : 768
    },
    {
      "buffer" : 0,
      "byteOffset" : 1201020,
      "byteLength" : 1536
    },
    {
      "buffer" : 0,
      "byteOffset" : 1202556,
      "byteLength" : 768
    },
    {
      "buffer" : 0,
      "byteOffset" : 1203324,
      "byteLength" : 1536
    },
    {
      "buffer" : 0,
      "byteOffset" : 1204860,
      "byteLength" : 1536
    },
    {
      "buffer" : 0,
      "byteOffset" : 1206396,
      "byteLength" : 1460
    },
    {
      "buffer" : 0,
      "byteOffset" : 1207856,
      "byteLength" : 2412
    },
    {
      "buffer" : 0,
      "byteOffset" : 1210268,
      "byteLength" : 2412
    },
    {
      "buffer" : 0,
      "byteOffset" : 1212680,
      "byteLength" : 3216
    },
    {
      "buffer" : 0,
      "byteOffset" : 1215896,
      "byteLength" : 804
    },
    {
      "buffer" : 0,
      "byteOffset" : 1216700,
      "byteLength" : 1608
    },
    {
      "buffer" : 0,
      "byteOffset" : 1218308,
      "byteLength" : 804
    },
    {
      "buffer" : 0,
      "byteOffset" : 1219112,
      "byteLength" : 1608
    },
    {
      "buffer" : 0,
      "byteOffset" : 1220720,
      "byteLength" : 1608
    },
    {
      "buffer" : 0,
      "byteOffset" : 1222328,
      "byteLength" : 10896
    },
    {
      "buffer" : 0,
      "byteOffset" : 1233224,
      "byteLength" : 21228
    },
    {
      "buffer" : 0,
      "byteOffset" : 1254452,
      "byteLength" : 21228
    },
    {
      "buffer" : 0,
      "byteOffset" : 1275680,
      "byteLength" : 28304
    },
    {
      "buffer" : 0,
      "byteOffset" : 1303984,
      "byteLength" : 7076
    },
    {
      "buffer" : 0,
      "byteOffset" : 1311060,
      "byteLength" : 14152
    },
    {
      "buffer" : 0,
      "byteOffset" : 1325212,
      "byteLength" : 7076
    },
    {
      "buffer" : 0,
      "byteOffset" : 1332288,
      "byteLength" : 14152
    },
    {
      "buffer" : 0,
      "byteOffset" : 1346440,
      "byteLength" : 14152
    },
    {
      "buffer" : 0,
      "byteOffset" : 1360592,
      "byteLength" : 7320
    },
    {
      "buffer" : 0,
      "byteOffset" : 1367912,
      "byteLength" : 13356
    },
    {
      "buffer" : 0,
      "byteOffset" : 1381268,
      "byteLength" : 13356
    },
    {
      "buffer" : 0,
      "byteOffset" : 1394624,
      "byteLength" : 17808
    },
    {
      "buffer" : 0,
      "byteOffset" : 1412432,
      "byteLength" : 4452
    },
    {
      "buffer" : 0,
      "byteOffset" : 1416884,
      "byteLength" : 8904
    },
    {
      "buffer" : 0,
      "byteOffset" : 1425788,
      "byteLength" : 4452
    },
    {
      "buffer" : 0,
      "byteOffset" : 1430240,
      "byteLength" : 8904
    },
    {
      "buffer" : 0,
      "byteOffset" : 1439144,
      "byteLength" : 8904
    },
    {
      "buffer" : 0,
      "byteOffset" : 1448048,
      "byteLength" : 3992
    },
    {
      "buffer" : 0,
      "byteOffset" : 1452040,
      "byteLength" : 7332
    },
    {
      "buffer" : 0,
      "byteOffset" : 1459372,
      "byteLength" : 7332
    },
    {
      "buffer" : 0,
      "byteOffset" : 1466704,
      "byteLength" : 9776
    },
    {
      "buffer" : 0,
      "byteOffset" : 1476480,
      "byteLength" : 2444
    },
    {
      "buffer" : 0,
      "byteOffset" : 1478924,
      "byteLength" : 4888
    },
    {
      "buffer" : 0,
      "byteOffset" : 1483812,
      "byteLength" : 2444
    },
    {
      "buffer" : 0,
      "byteOffset" : 1486256,
      "byteLength" : 4888
    },
    {
      "buffer" : 0,
      "byteOffset" : 1491144,
      "byteLength" : 4888
    },
    {
      "buffer" : 0,
      "byteOffset" : 1496032,
      "byteLength" : 5196
    },
    {
      "buffer" : 0,
      "byteOffset" : 1501228,
      "byteLength" : 10332
    },
    {
      "buffer" : 0,
      "byteOffset" : 1511560,
      "byteLength" : 10332
    },
    {
      "buffer" : 0,
      "byteOffset" : 1521892,
      "byteLength" : 13776
    },
    {
      "buffer" : 0,
      "byteOffset" : 1535668,
      "byteLength" : 3444
    },
    {
      "buffer" : 0,
      "byteOffset" : 1539112,
      "byteLength" : 6888
    },
    {
      "buffer" : 0,
      "byteOffset" : 1546000,
      "byteLength" : 3444
    },
    {
      "buffer" : 0,
      "byteOffset" : 1549444,
      "byteLength" : 6888
    },
    {
      "buffer" : 0,
      "byteOffset" : 1556332,
      "byteLength" : 6888
    },
    {
      "buffer" : 0,
      "byteOffset" : 1563220,
      "byteLength" : 1296
    },
    {
      "buffer" : 0,
      "byteOffset" : 1564516,
      "byteLength" : 2184
    },
    {
      "buffer" : 0,
      "byteOffset" : 1566700,
      "byteLength" : 2184
    },
    {
      "buffer" : 0,
      "byteOffset" : 1568884,
      "byteLength" : 2912
    },
    {
      "buffer" : 0,
      "byteOffset" : 1571796,
      "byteLength" : 728
    },
    {
      "buffer" : 0,
      "byteOffset" : 1572524,
      "byteLength" : 1456
    },
    {
      "buffer" : 0,
      "byteOffset" : 1573980,
      "byteLength" : 728
    },
    {
      "buffer" : 0,
      "byteOffset" : 1574708,
      "byteLength" : 1456
    },
    {
      "buffer" : 0,
      "byteOffset" : 1576164,
      "byteLength" : 1456
    }
  ],
  "accessors" : [
    {
      "bufferView" : 0,
      "componentType" : 5126,
      "count" : 45,
      "type" : "MAT4"
    },
    {
      "bufferView" : 1,
      "componentType" : 5123,
      "count" : 10266,
      "type" : "SCALAR"
    },
    {
      "bufferView" : 2,
      "min" : [ -0.0748646, 1.4408, -0.0998695 ],
      "max" : [ 0.0763389, 1.6317, 0.0891457 ],
      "componentType" : 5126,
      "count" : 2547,
      "type" : "VEC3"
    },
    {
      "bufferView" : 3,
      "componentType" : 5126,
      "count" : 2547,
      "type" : "VEC3"
    },
    {
      "bufferView" : 4,
      "componentType" : 5126,
      "count" : 2547,
      "type" : "VEC4"
    },
    {
      "bufferView" : 5,
      "normalized" : true,
      "componentType" : 5121,
      "count" : 2547,
      "type" : "VEC4"
    },
    {
      "bufferView" : 6,
      "componentType" : 5123,
      "count" : 2547,
      "type" : "VEC4"
    },
    {
      "bufferView" : 7,
      "normalized" : true,
      "componentType" : 5121,
      "count" : 2547,
      "type" : "VEC4"
    },
    {
      "bufferView" : 8,
      "componentType" : 5126,
      "count" : 2547,
      "type" : "VEC2"
    },
    {
      "bufferView" : 9,
      "componentType" : 5126,
      "count" : 2547,
      "type" : "VEC2"
    },
    {
      "bufferView" : 10,
      "componentType" : 5123,
      "count" : 10818,
      "type" : "SCALAR"
    },
    {
      "bufferView" : 11,
      "min" : [ -0.0789599, 1.4437, -0.101526 ],
      "max" : [ 0.0760421, 1.63602, 0.0454144 ],
      "componentType" : 5126,
      "count" : 3591,
      "type" : "VEC3"
    },
    {
      "bufferView" : 12,
      "componentType" : 5126,
      "count" : 3591,
      "type" : "VEC3"
    },
    {
      "bufferView" : 13,
      "componentType" : 5126,
      "count" : 3591,
      "type" : "VEC4"
    },
    {
      "bufferView" : 14,
      "normalized" : true,
      "componentType" : 5121,
      "count" : 3591,
      "type" : "VEC4"
    },
    {
      "bufferView" : 15,
      "componentType" : 5123,
      "count" : 3591,
      "type" : "VEC4"
    },
    {
      "bufferView" : 16,
      "normalized" : true,
      "componentType" : 5121,
      "count" : 3591,
      "type" : "VEC4"
    },
    {
      "bufferView" : 17,
      "componentType" : 5126,
      "count" : 3591,
      "type" : "VEC2"
    },
    {
      "bufferView" : 18,
      "componentType" : 5126,
      "count" : 3591,
      "type" : "VEC2"
    },
    {
      "bufferView" : 19,
      "componentType" : 5123,
      "count" : 4632,
      "type" : "SCALAR"
    },
    {
      "bufferView" : 20,
      "min" : [ -0.0742677, 1.44345, -0.106128 ],
      "max" : [ 0.0769665, 1.63238, 0.0459234 ],
      "componentType" : 5126,
      "count" : 1399,
      "type" : "VEC3"
    },
    {
      "bufferView" : 21,
      "componentType" : 5126,
      "count" : 1399,
      "type" : "VEC3"
    },
    {
      "bufferView" : 22,
      "componentType" : 5126,
      "count" : 1399,
      "type" : "VEC4"
    },
    {
      "bufferView" : 23,
      "normalized" : true,
      "componentType" : 5121,
      "count" : 1399,
      "type" : "VEC4"
    },
    {
      "bufferView" : 24,
      "componentType" : 5123,
      "count" : 1399,
      "type" : "VEC4"
    },
    {
      "bufferView" : 25,
      "normalized" : true,
      "componentType" : 5121,
      "count" : 1399,
      "type" : "VEC4"
    },
    {
      "bufferView" : 26,
      "componentType" : 5126,
      "count" : 1399,
      "type" : "VEC2"
    },
    {
      "bufferView" : 27,
      "componentType" : 5126,
      "count" : 1399,
      "type" : "VEC2"
    },
    {
      "bufferView" : 28,
      "componentType" : 5123,
      "count" : 5853,
      "type" : "SCALAR"
    },
    {
      "bufferView" : 29,
      "min" : [ -0.0789356, 0.735962, -0.453157 ],
      "max" : [ 0.0539447, 1.64688, -0.0700692 ],
      "componentType" : 5126,
      "count" : 1571,
      "type" : "VEC3"
    },
    {
      "bufferView" : 30,
      "componentType" : 5126,
      "count" : 1571,
      "type" : "VEC3"
    },
    {
      "bufferView" : 31,
      "componentType" : 5126,
      "count" : 1571,
      "type" : "VEC4"
    },
    {
      "bufferView" : 32,
      "normalized" : true,
      "componentType" : 5121,
      "count" : 1571,
      "type" : "VEC4"
    },
    {
      "bufferView" : 33,
      "componentType" : 5123,
      "count" : 1571,
      "type" : "VEC4"
    },
    {
      "bufferView" : 34,
      "normalized" : true,
      "componentType" : 5121,
      "count" : 1571,
      "type" : "VEC4"
    },
    {
      "bufferView" : 35,
      "componentType" : 5126,
      "count" : 1571,
      "type" : "VEC2"
    },
    {
      "bufferView" : 36,
      "componentType" : 5126,
      "count" : 1571,
      "type" : "VEC2"
    },
    {
      "bufferView" : 37,
      "componentType" : 5123,
      "count" : 5619,
      "type" : "SCALAR"
    },
    {
      "bufferView" : 38,
      "min" : [ -0.0888861, 0.700461, -0.491635 ],
      "max" : [ 0.0707912, 1.56539, -0.195867 ],
      "componentType" : 5126,
      "count" : 1864,
      "type" : "VEC3"
    },
    {
      "bufferView" : 39,
      "componentType" : 5126,
      "count" : 1864,
      "type" : "VEC3"
    },
    {
      "bufferView" : 40,
      "componentType" : 5126,
      "count" : 1864,
      "type" : "VEC4"
    },
    {
      "bufferView" : 41,
      "normalized" : true,
      "componentType" : 5121,
      "count" : 1864,
      "type" : "VEC4"
    },
    {
      "bufferView" : 42,
      "componentType" : 5123,
      "count" : 1864,
      "type" : "VEC4"
    },
    {
      "bufferView" : 43,
      "normalized" : true,
      "componentType" : 5121,
      "count" : 1864,
      "type" : "VEC4"
    },
    {
      "bufferView" : 44,
      "componentType" : 5126,
      "count" : 1864,
      "type" : "VEC2"
    },
    {
      "bufferView" : 45,
      "componentType" : 5126,
      "count" : 1864,
      "type" : "VEC2"
    },
    {
      "bufferView" : 46,
      "componentType" : 5123,
      "count" : 1122,
      "type" : "SCALAR"
    },
    {
      "bufferView" : 47,
      "min" : [ -0.0695538, 0.733387, -0.506564 ],
      "max" : [ 0.0723504, 1.46767, -0.199433 ],
      "componentType" : 5126,
      "count" : 376,
      "type" : "VEC3"
    },
    {
      "bufferView" : 48,
      "componentType" : 5126,
      "count" : 376,
      "type" : "VEC3"
    },
    {
      "bufferView" : 49,
      "componentType" : 5126,
      "count" : 376,
      "type" : "VEC4"
    },
    {
      "bufferView" : 50,
      "normalized" : true,
      "componentType" : 5121,
      "count" : 376,
      "type" : "VEC4"
    },
    {
      "bufferView" : 51,
      "componentType" : 5123,
      "count" : 376,
      "type" : "VEC4"
    },
    {
      "bufferView" : 52,
      "normalized" : true,
      "componentType" : 5121,
      "count" : 376,
      "type" : "VEC4"
    },
    {
      "bufferView" : 53,
      "componentType" : 5126,
      "count" : 376,
      "type" : "VEC2"
    },
    {
      "bufferView" : 54,
      "componentType" : 5126,
      "count" : 376,
      "type" : "VEC2"
    },
    {
      "bufferView" : 55,
      "componentType" : 5123,
      "count" : 4059,
      "type" : "SCALAR"
    },
    {
      "bufferView" : 56,
      "min" : [ -0.111761, 0.714913, -0.499745 ],
      "max" : [ 0.0583184, 1.43003, -0.189549 ],
      "componentType" : 5126,
      "count" : 1340,
      "type" : "VEC3"
    },
    {
      "bufferView" : 57,
      "componentType" : 5126,
      "count" : 1340,
      "type" : "VEC3"
    },
    {
      "bufferView" : 58,
      "componentType" : 5126,
      "count" : 1340,
      "type" : "VEC4"
    },
    {
      "bufferView" : 59,
      "normalized" : true,
      "componentType" : 5121,
      "count" : 1340,
      "type" : "VEC4"
    },
    {
      "bufferView" : 60,
      "componentType" : 5123,
      "count" : 1340,
      "type" : "VEC4"
    },
    {
      "bufferView" : 61,
      "normalized" : true,
      "componentType" : 5121,
      "count" : 1340,
      "type" : "VEC4"
    },
    {
      "bufferView" : 62,
      "componentType" : 5126,
      "count" : 1340,
      "type" : "VEC2"
    },
    {
      "bufferView" : 63,
      "componentType" : 5126,
      "count" : 1340,
      "type" : "VEC2"
    },
    {
      "bufferView" : 64,
      "componentType" : 5123,
      "count" : 624,
      "type" : "SCALAR"
    },
    {
      "bufferView" : 65,
      "min" : [ -0.0790572, 0.790832, -0.444746 ],
      "max" : [ 0.0525236, 1.52987, -0.198809 ],
      "componentType" : 5126,
      "count" : 222,
      "type" : "VEC3"
    },
    {
      "bufferView" : 66,
      "componentType" : 5126,
      "count" : 222,
      "type" : "VEC3"
    },
    {
      "bufferView" : 67,
      "componentType" : 5126,
      "count" : 222,
      "type" : "VEC4"
    },
    {
      "bufferView" : 68,
      "normalized" : true,
      "componentType" : 5121,
      "count" : 222,
      "type" : "VEC4"
    },
    {
      "bufferView" : 69,
      "componentType" : 5123,
      "count" : 222,
      "type" : "VEC4"
    },
    {
      "bufferView" : 70,
      "normalized" : true,
      "componentType" : 5121,
      "count" : 222,
      "type" : "VEC4"
    },
    {
      "bufferView" : 71,
      "componentType" : 5126,
      "count" : 222,
      "type" : "VEC2"
    },
    {
      "bufferView" : 72,
      "componentType" : 5126,
      "count" : 222,
      "type" : "VEC2"
    },
    {
      "bufferView" : 73,
      "componentType" : 5123,
      "count" : 1071,
      "type" : "SCALAR"
    },
    {
      "bufferView" : 74,
      "min" : [ -0.111128, 0.791755, -0.538919 ],
      "max" : [ 0.0355398, 1.46087, -0.171781 ],
      "componentType" : 5126,
      "count" : 385,
      "type" : "VEC3"
    },
    {
      "bufferView" : 75,
      "componentType" : 5126,
      "count" : 385,
      "type" : "VEC3"
    },
    {
      "bufferView" : 76,
      "componentType" : 5126,
      "count" : 385,
      "type" : "VEC4"
    },
    {
      "bufferView" : 77,
      "normalized" : true,
      "componentType" : 5121,
      "count" : 385,
      "type" : "VEC4"
    },
    {
      "bufferView" : 78,
      "componentType" : 5123,
      "count" : 385,
      "type" : "VEC4"
    },
    {
      "bufferView" : 79,
      "normalized" : true,
      "componentType" : 5121,
      "count" : 385,
      "type" : "VEC4"
    },
    {
      "bufferView" : 80,
      "componentType" : 5126,
      "count" : 385,
      "type" : "VEC2"
    },
    {
      "bufferView" : 81,
      "componentType" : 5126,
      "count" : 385,
      "type" : "VEC2"
    },
    {
      "bufferView" : 82,
      "componentType" : 5123,
      "count" : 3069,
      "type" : "SCALAR"
    },
    {
      "bufferView" : 83,
      "min" : [ -0.031324, 1.36919, -0.262026 ],
      "max" : [ 0.062371, 1.65354, -0.0875451 ],
      "componentType" : 5126,
      "count" : 949,
      "type" : "VEC3"
    },
    {
      "bufferView" : 84,
      "componentType" : 5126,
      "count" : 949,
      "type" : "VEC3"
    },
    {
      "bufferView" : 85,
      "componentType" : 5126,
      "count" : 949,
      "type" : "VEC4"
    },
    {
      "bufferView" : 86,
      "normalized" : true,
      "componentType" : 5121,
      "count" : 949,
      "type" : "VEC4"
    },
    {
      "bufferView" : 87,
      "componentType" : 5123,
      "count" : 949,
      "type" : "VEC4"
    },
    {
      "bufferView" : 88,
      "normalized" : true,
      "componentType" : 5121,
      "count" : 949,
      "type" : "VEC4"
    },
    {
      "bufferView" : 89,
      "componentType" : 5126,
      "count" : 949,
      "type" : "VEC2"
    },
    {
      "bufferView" : 90,
      "componentType" : 5126,
      "count" : 949,
      "type" : "VEC2"
    },
    {
      "bufferView" : 91,
      "componentType" : 5123,
      "count" : 540,
      "type" : "SCALAR"
    },
    {
      "bufferView" : 92,
      "min" : [ -0.0393846, 1.40307, -0.258602 ],
      "max" : [ 0.0632102, 1.63323, -0.112782 ],
      "componentType" : 5126,
      "count" : 194,
      "type" : "VEC3"
    },
    {
      "bufferView" : 93,
      "componentType" : 5126,
      "count" : 194,
      "type" : "VEC3"
    },
    {
      "bufferView" : 94,
      "componentType" : 5126,
      "count" : 194,
      "type" : "VEC4"
    },
    {
      "bufferView" : 95,
      "normalized" : true,
      "componentType" : 5121,
      "count" : 194,
      "type" : "VEC4"
    },
    {
      "bufferView" : 96,
      "componentType" : 5123,
      "count" : 194,
      "type" : "VEC4"
    },
    {
      "bufferView" : 97,
      "normalized" : true,
      "componentType" : 5121,
      "count" : 194,
      "type" : "VEC4"
    },
    {
      "bufferView" : 98,
      "componentType" : 5126,
      "count" : 194,
      "type" : "VEC2"
    },
    {
      "bufferView" : 99,
      "componentType" : 5126,
      "count" : 194,
      "type" : "VEC2"
    },
    {
      "bufferView" : 100,
      "componentType" : 5123,
      "count" : 2103,
      "type" : "SCALAR"
    },
    {
      "bufferView" : 101,
      "min" : [ -0.0368421, 1.40359, -0.270251 ],
      "max" : [ 0.0458609, 1.65795, -0.0858654 ],
      "componentType" : 5126,
      "count" : 687,
      "type" : "VEC3"
    },
    {
      "bufferView" : 102,
      "componentType" : 5126,
      "count" : 687,
      "type" : "VEC3"
    },
    {
      "bufferView" : 103,
      "componentType" : 5126,
      "count" : 687,
      "type" : "VEC4"
    },
    {
      "bufferView" : 104,
      "normalized" : true,
      "componentType" : 5121,
      "count" : 687,
      "type" : "VEC4"
    },
    {
      "bufferView" : 105,
      "componentType" : 5123,
      "count" : 687,
      "type" : "VEC4"
    },
    {
      "bufferView" : 106,
      "normalized" : true,
      "componentType" : 5121,
      "count" : 687,
      "type" : "VEC4"
    },
    {
      "bufferView" : 107,
      "componentType" : 5126,
      "count" : 687,
      "type" : "VEC2"
    },
    {
      "bufferView" : 108,
      "componentType" : 5126,
      "count" : 687,
      "type" : "VEC2"
    },
    {
      "bufferView" : 109,
      "componentType" : 5123,
      "count" : 564,
      "type" : "SCALAR"
    },
    {
      "bufferView" : 110,
      "min" : [ -0.110427, 0.866191, -0.475199 ],
      "max" : [ 0.0435684, 1.64949, -0.0932596 ],
      "componentType" : 5126,
      "count" : 192,
      "type" : "VEC3"
    },
    {
      "bufferView" : 111,
      "componentType" : 5126,
      "count" : 192,
      "type" : "VEC3"
    },
    {
      "bufferView" : 112,
      "componentType" : 5126,
      "count" : 192,
      "type" : "VEC4"
    },
    {
      "bufferView" : 113,
      "normalized" : true,
      "componentType" : 5121,
      "count" : 192,
      "type" : "VEC4"
    },
    {
      "bufferView" : 114,
      "componentType" : 5123,
      "count" : 192,
      "type" : "VEC4"
    },
    {
      "bufferView" : 115,
      "normalized" : true,
      "componentType" : 5121,
      "count" : 192,
      "type" : "VEC4"
    },
    {
      "bufferView" : 116,
      "componentType" : 5126,
      "count" : 192,
      "type" : "VEC2"
    },
    {
      "bufferView" : 117,
      "componentType" : 5126,
      "count" : 192,
      "type" : "VEC2"
    },
    {
      "bufferView" : 118,
      "componentType" : 5123,
      "count" : 729,
      "type" : "SCALAR"
    },
    {
      "bufferView" : 119,
      "min" : [ -0.0379595, 1.40508, -0.251623 ],
      "max" : [ 0.0279977, 1.62665, -0.0695861 ],
      "componentType" : 5126,
      "count" : 201,
      "type" : "VEC3"
    },
    {
      "bufferView" : 120,
      "componentType" : 5126,
      "count" : 201,
      "type" : "VEC3"
    },
    {
      "bufferView" : 121,
      "componentType" : 5126,
      "count" : 201,
      "type" : "VEC4"
    },
    {
      "bufferView" : 122,
      "normalized" : true,
      "componentType" : 5121,
      "count" : 201,
      "type" : "VEC4"
    },
    {
      "bufferView" : 123,
      "componentType" : 5123,
      "count" : 201,
      "type" : "VEC4"
    },
    {
      "bufferView" : 124,
      "normalized" : true,
      "componentType" : 5121,
      "count" : 201,
      "type" : "VEC4"
    },
    {
      "bufferView" : 125,
      "componentType" : 5126,
      "count" : 201,
      "type" : "VEC2"
    },
    {
      "bufferView" : 126,
      "componentType" : 5126,
      "count" : 201,
      "type" : "VEC2"
    },
    {
      "bufferView" : 127,
      "componentType" : 5123,
      "count" : 5448,
      "type" : "SCALAR"
    },
    {
      "bufferView" : 128,
      "min" : [ -0.0757934, 1.38721, 0.0017493 ],
      "max" : [ 0.0656677, 1.60447, 0.0858281 ],
      "componentType" : 5126,
      "count" : 1769,
      "type" : "VEC3"
    },
    {
      "bufferView" : 129,
      "componentType" : 5126,
      "count" : 1769,
      "type" : "VEC3"
    },
    {
      "bufferView" : 130,
      "componentType" : 5126,
      "count" : 1769,
      "type" : "VEC4"
    },
    {
      "bufferView" : 131,
      "normalized" : true,
      "componentType" : 5121,
      "count" : 1769,
      "type" : "VEC4"
    },
    {
      "bufferView" : 132,
      "componentType" : 5123,
      "count" : 1769,
      "type" : "VEC4"
    },
    {
      "bufferView" : 133,
      "normalized" : true,
      "componentType" : 5121,
      "count" : 1769,
      "type" : "VEC4"
    },
    {
      "bufferView" : 134,
      "componentType" : 5126,
      "count" : 1769,
      "type" : "VEC2"
    },
    {
      "bufferView" : 135,
      "componentType" : 5126,
      "count" : 1769,
      "type" : "VEC2"
    },
    {
      "bufferView" : 136,
      "componentType" : 5123,
      "count" : 3660,
      "type" : "SCALAR"
    },
    {
      "bufferView" : 137,
      "min" : [ -0.0588611, 1.38469, 0.00171783 ],
      "max" : [ 0.0731439, 1.61003, 0.0851546 ],
      "componentType" : 5126,
      "count" : 1113,
      "type" : "VEC3"
    },
    {
      "bufferView" : 138,
      "componentType" : 5126,
      "count" : 1113,
      "type" : "VEC3"
    },
    {
      "bufferView" : 139,
      "componentType" : 5126,
      "count" : 1113,
      "type" : "VEC4"
    },
    {
      "bufferView" : 140,
      "normalized" : true,
      "componentType" : 5121,
      "count" : 1113,
      "type" : "VEC4"
    },
    {
      "bufferView" : 141,
      "componentType" : 5123,
      "count" : 1113,
      "type" : "VEC4"
    },
    {
      "bufferView" : 142,
      "normalized" : true,
      "componentType" : 5121,
      "count" : 1113,
      "type" : "VEC4"
    },
    {
      "bufferView" : 143,
      "componentType" : 5126,
      "count" : 1113,
      "type" : "VEC2"
    },
    {
      "bufferView" : 144,
      "componentType" : 5126,
      "count" : 1113,
      "type" : "VEC2"
    },
    {
      "bufferView" : 145,
      "componentType" : 5123,
      "count" : 1995,
      "type" : "SCALAR"
    },
    {
      "bufferView" : 146,
      "min" : [ -0.0744775, 1.39094, -0.00156946 ],
      "max" : [ 0.074973, 1.61037, 0.0888739 ],
      "componentType" : 5126,
      "count" : 611,
      "type" : "VEC3"
    },
    {
      "bufferView" : 147,
      "componentType" : 5126,
      "count" : 611,
      "type" : "VEC3"
    },
    {
      "bufferView" : 148,
      "componentType" : 5126,
      "count" : 611,
      "type" : "VEC4"
    },
    {
      "bufferView" : 149,
      "normalized" : true,
      "componentType" : 5121,
      "count" : 611,
      "type" : "VEC4"
    },
    {
      "bufferView" : 150,
      "componentType" : 5123,
      "count" : 611,
      "type" : "VEC4"
    },
    {
      "bufferView" : 151,
      "normalized" : true,
      "componentType" : 5121,
      "count" : 611,
      "type" : "VEC4"
    },
    {
      "bufferView" : 152,
      "componentType" : 5126,
      "count" : 611,
      "type" : "VEC2"
    },
    {
      "bufferView" : 153,
      "componentType" : 5126,
      "count" : 611,
      "type" : "VEC2"
    },
    {
      "bufferView" : 154,
      "componentType" : 5123,
      "count" : 2598,
      "type" : "SCALAR"
    },
    {
      "bufferView" : 155,
      "min" : [ -0.0786905, 1.39969, 0.000188472 ],
      "max" : [ 0.0743746, 1.61238, 0.0899682 ],
      "componentType" : 5126,
      "count" : 861,
      "type" : "VEC3"
    },
    {
      "bufferView" : 156,
      "componentType" : 5126,
      "count" : 861,
      "type" : "VEC3"
    },
    {
      "bufferView" : 157,
      "componentType" : 5126,
      "count" : 861,
      "type" : "VEC4"
    },
    {
      "bufferView" : 158,
      "normalized" : true,
      "componentType" : 5121,
      "count" : 861,
      "type" : "VEC4"
    },
    {
      "bufferView" : 159,
      "componentType" : 5123,
      "count" : 861,
      "type" : "VEC4"
    },
    {
      "bufferView" : 160,
      "normalized" : true,
      "componentType" : 5121,
      "count" : 861,
      "type" : "VEC4"
    },
    {
      "bufferView" : 161,
      "componentType" : 5126,
      "count" : 861,
      "type" : "VEC2"
    },
    {
      "bufferView" : 162,
      "componentType" : 5126,
      "count" : 861,
      "type" : "VEC2"
    },
    {
      "bufferView" : 163,
      "componentType" : 5123,
      "count" : 648,
      "type" : "SCALAR"
    },
    {
      "bufferView" : 164,
      "min" : [ -0.0777647, 1.41972, 0.0116297 ],
      "max" : [ 0.0473618, 1.6041, 0.0922522 ],
      "componentType" : 5126,
      "count" : 182,
      "type" : "VEC3"
    },
    {
      "bufferView" : 165,
      "componentType" : 5126,
      "count" : 182,
      "type" : "VEC3"
    },
    {
      "bufferView" : 166,
      "componentType" : 5126,
      "count" : 182,
      "type" : "VEC4"
    },
    {
      "bufferView" : 167,
      "normalized" : true,
      "componentType" : 5121,
      "count" : 182,
      "type" : "VEC4"
    },
    {
      "bufferView" : 168,
      "componentType" : 5123,
      "count" : 182,
      "type" : "VEC4"
    },
    {
      "bufferView" : 169,
      "normalized" : true,
      "componentType" : 5121,
      "count" : 182,
      "type" : "VEC4"
    },
    {
      "bufferView" : 170,
      "componentType" : 5126,
      "count" : 182,
      "type" : "VEC2"
    },
    {
      "bufferView" : 171,
      "componentType" : 5126,
      "count" : 182,
      "type" : "VEC2"
    }
  ]
}
