{
  "asset" : {
    "generator" : "UE Viewer (umodel) build 1544 based",
    "version" : "2.0"
  },
  "scene" : 0,
  "scenes" : [
    {
      "nodes" : [ 0 ]
    }
  ],
  "nodes" : [
    {
      "name" : "Female_Hair_0100",
      "mesh" : 0,
      "skin" : 0,
      "children" : [ 1 ]
    },
    {
      "name" : "Root",
      "children" : [ 2 ],
      "translation" : [ 5.68434e-16, 0, 0 ],
      "rotation" : [ 3.06162e-17, -0, -0, 1 ]
    },
    {
      "name" : "Bip001",
      "children" : [ 3 ],
      "translation" : [ 2.41693e-09, 0.989638, -0.03489 ],
      "rotation" : [ -4.156e-39, 0.707106, -4.156e-39, -0.707107 ]
    },
    {
      "name" : "Bip001-Pelvis",
      "children" : [ 4, 57, 58 ],
      "translation" : [ 0, 0, -0 ],
      "rotation" : [ 0.531911, 0.465908, -0.465908, -0.531912 ]
    },
    {
      "name" : "Bip001-Spine",
      "children" : [ 5 ],
      "translation" : [ 0.0626634, 5.12059e-08, -0.00888381 ],
      "rotation" : [ 2.09401e-06, -0.0205486, -7.07502e-07, -0.999789 ]
    },
    {
      "name" : "Bip001-Spine1",
      "children" : [ 6 ],
      "translation" : [ 0.0846808, -1.86847e-10, 6.73485e-05 ],
      "rotation" : [ 6.44324e-15, 0.107231, 2.97415e-07, -0.994234 ]
    },
    {
      "name" : "Bip001-Spine2",
      "children" : [ 7, 47, 49, 51, 54 ],
      "translation" : [ 0.0865589, -4.08208e-10, 0.000147371 ],
      "rotation" : [ 2.46472e-09, 0.0810448, 2.16515e-07, -0.99671 ]
    },
    {
      "name" : "Bip001-Neck",
      "children" : [ 8 ],
      "translation" : [ 0.164851, -2.30259e-08, -0.000797348 ],
      "rotation" : [ 1.81494e-14, -0.190493, -5.28351e-07, -0.981689 ]
    },
    {
      "name" : "Bip001-Head",
      "children" : [ 9 ],
      "translation" : [ 0.0747542, 1.35525e-22, -0 ],
      "rotation" : [ -7.45419e-07, 0.0895748, 1.86518e-07, -0.99598 ]
    },
    {
      "name" : "HeadRoot",
      "children" : [ 10, 15, 20, 25, 29, 33, 37, 41, 43, 45 ],
      "translation" : [ -3.95591e-08, 1.32697e-14, 2.64496e-08 ],
      "rotation" : [ 1.35222e-08, 3.88316e-08, -7.86953e-08, -1 ]
    },
    {
      "name" : "Bone-RB-Hair01",
      "children" : [ 11 ],
      "translation" : [ 0.0284773, -0.0613798, 0.0335306 ],
      "rotation" : [ 0.118919, -0.134514, 0.98375, -0.000565386 ]
    },
    {
      "name" : "Bone-RB-Hair02",
      "children" : [ 12 ],
      "translation" : [ 0.114, 2.93791e-09, 3.05006e-09 ],
      "rotation" : [ -2.07557e-07, -0.0274557, 9.88051e-08, -0.999623 ]
    },
    {
      "name" : "Bone-RB-Hair03",
      "children" : [ 13 ],
      "translation" : [ 0.136527, -7.50519e-08, -9.58571e-09 ],
      "rotation" : [ 2.37232e-07, -0.0386793, -5.05476e-08, -0.999252 ]
    },
    {
      "name" : "Bone-RB-Hair04",
      "children" : [ 14 ],
      "translation" : [ 0.142077, 3.15464e-09, -1.1753e-07 ],
      "rotation" : [ -5.3589e-07, -0.0753762, 2.75335e-08, -0.997155 ]
    },
    {
      "name" : "Tail-Bone-RB-Hair04",
      "translation" : [ 0.16752, -8.26556e-08, 7.90704e-08 ],
      "rotation" : [ -6.78946e-07, -6.82736e-08, -5.45711e-08, -1 ]
    },
    {
      "name" : "Bone-B-Hair01",
      "children" : [ 16 ],
      "translation" : [ 0.0290727, 1.48012e-07, 0.0359103 ],
      "rotation" : [ 0.122305, -2.40907e-07, 0.992492, 1.50648e-07 ]
    },
    {
      "name" : "Bone-B-Hair02",
      "children" : [ 17 ],
      "translation" : [ 0.114, 3.18351e-09, -6.11956e-08 ],
      "rotation" : [ -2.1635e-07, -0.0274557, 5.94229e-09, -0.999623 ]
    },
    {
      "name" : "Bone-B-Hair03",
      "children" : [ 18 ],
      "translation" : [ 0.136527, 8.51675e-09, 1.50263e-09 ],
      "rotation" : [ 3.17909e-14, -0.0386797, -5.12497e-15, -0.999252 ]
    },
    {
      "name" : "Bone-B-Hair04",
      "children" : [ 19 ],
      "translation" : [ 0.142076, 8.86015e-09, 4.17153e-09 ],
      "rotation" : [ 4.84098e-07, -0.075376, 7.80584e-08, -0.997155 ]
    },
    {
      "name" : "Tail-Bone-B-Hair04",
      "translation" : [ 0.16752, 7.62939e-08, 7.58673e-08 ],
      "rotation" : [ -1.86364e-06, -2.56194e-08, -4.37115e-08, -1 ]
    },
    {
      "name" : "Bone-LB-Hair01",
      "children" : [ 21 ],
      "translation" : [ 0.0284775, 0.0613792, 0.0335306 ],
      "rotation" : [ -0.00056547, -0.98375, 0.134514, 0.118919 ]
    },
    {
      "name" : "Bone-LB-Hair02",
      "children" : [ 22 ],
      "translation" : [ 0.114, 3.64572e-09, 5.57588e-08 ],
      "rotation" : [ 2.36535e-07, 0.0274557, 4.8183e-08, -0.999623 ]
    },
    {
      "name" : "Bone-LB-Hair03",
      "children" : [ 23 ],
      "translation" : [ 0.136527, -1.96921e-09, -7.5596e-08 ],
      "rotation" : [ -1.51037e-08, 0.0386795, 3.50201e-09, -0.999252 ]
    },
    {
      "name" : "Bone-LB-Hair04",
      "children" : [ 24 ],
      "translation" : [ 0.142077, -1.56849e-09, 1.11523e-07 ],
      "rotation" : [ 5.23883e-08, 0.075376, 5.91522e-08, -0.997155 ]
    },
    {
      "name" : "Tail-Bone-LB-Hair04",
      "translation" : [ 0.16752, -7.21983e-09, 4.77644e-08 ],
      "rotation" : [ -5.16771e-07, -2.27634e-08, 7.24483e-08, -1 ]
    },
    {
      "name" : "Bone-R-Hair04",
      "children" : [ 26 ],
      "translation" : [ 0.0786963, -0.0622582, -0.0560994 ],
      "rotation" : [ -0.0186909, -0.850141, 0.526222, -0.00106017 ]
    },
    {
      "name" : "Bone-R-Hair05",
      "children" : [ 27 ],
      "translation" : [ 0.0643481, 2.3657e-09, -2.09108e-07 ],
      "rotation" : [ 0.000341388, 0.00506935, -0.0755188, -0.997131 ]
    },
    {
      "name" : "Bone-R-Hair06",
      "children" : [ 28 ],
      "translation" : [ 0.0636148, 4.8372e-09, -8.11909e-08 ],
      "rotation" : [ 0.00060849, 0.00888973, -0.0383108, -0.999226 ]
    },
    {
      "name" : "Tail-Bone-R-Hair06",
      "translation" : [ 0.0765685, 3.27497e-08, 1.71354e-08 ],
      "rotation" : [ 5.31018e-08, -1.99936e-09, 9.3156e-08, -1 ]
    },
    {
      "name" : "Bone-L-Hair04",
      "children" : [ 30 ],
      "translation" : [ 0.0786963, 0.0622601, -0.0560994 ],
      "rotation" : [ -0.0010603, -0.526222, 0.850141, -0.0186907 ]
    },
    {
      "name" : "Bone-L-Hair05",
      "children" : [ 31 ],
      "translation" : [ 0.0643482, 1.48502e-07, 1.35074e-07 ],
      "rotation" : [ -0.000341334, -0.00506939, -0.0755188, -0.997131 ]
    },
    {
      "name" : "Bone-L-Hair06",
      "children" : [ 32 ],
      "translation" : [ 0.0636146, -1.63952e-07, 1.17698e-07 ],
      "rotation" : [ -0.000608768, -0.00888974, -0.0383108, -0.999226 ]
    },
    {
      "name" : "Tail-Bone-L-Hair06",
      "translation" : [ 0.0765685, 1.75647e-07, -5.6554e-09 ],
      "rotation" : [ -8.06102e-08, 1.814e-09, 3.45924e-08, -1 ]
    },
    {
      "name" : "Bone-L-Hair01",
      "children" : [ 34 ],
      "translation" : [ 0.0696405, 0.0734701, -0.00597345 ],
      "rotation" : [ 0.0107929, -0.707085, 0.706994, 0.00861479 ]
    },
    {
      "name" : "Bone-L-Hair02",
      "children" : [ 35 ],
      "translation" : [ 0.0645893, -3.06545e-07, -5.45409e-09 ],
      "rotation" : [ 0.000835346, 0.00441967, -0.110371, -0.99388 ]
    },
    {
      "name" : "Bone-L-Hair03",
      "children" : [ 36 ],
      "translation" : [ 0.0651148, 3.00356e-07, 1.52675e-07 ],
      "rotation" : [ -0.000508042, -0.00284727, -0.143343, -0.989669 ]
    },
    {
      "name" : "Tail-Bone-L-Hair03",
      "translation" : [ 0.0621971, -2.62344e-08, 1.48694e-08 ],
      "rotation" : [ -6.22941e-09, -1.16251e-10, 3.71489e-08, -1 ]
    },
    {
      "name" : "Bone-R-Hair01",
      "children" : [ 38 ],
      "translation" : [ 0.0696405, -0.0734738, -0.00597344 ],
      "rotation" : [ 0.00861466, -0.706995, 0.707084, 0.0107929 ]
    },
    {
      "name" : "Bone-R-Hair02",
      "children" : [ 39 ],
      "translation" : [ 0.0645893, -3.98469e-09, -4.82947e-10 ],
      "rotation" : [ -0.000837517, -0.00441956, -0.110371, -0.99388 ]
    },
    {
      "name" : "Bone-R-Hair03",
      "children" : [ 40 ],
      "translation" : [ 0.0651148, 1.12505e-08, -1.46377e-07 ],
      "rotation" : [ 0.000508041, 0.00284727, -0.143343, -0.989669 ]
    },
    {
      "name" : "Tail-Bone-R-Hair03",
      "translation" : [ 0.0621975, -9.92727e-09, -1.71967e-08 ],
      "rotation" : [ -4.31867e-08, 8.49414e-10, -2.054e-07, -1 ]
    },
    {
      "name" : "Bone-LF-Hair01",
      "children" : [ 42 ],
      "translation" : [ 0.122059, 0.0333902, -0.0959127 ],
      "rotation" : [ 0.060872, -0.234226, 0.970163, 0.0146964 ]
    },
    {
      "name" : "Tail-Bone-LF-Hair01",
      "translation" : [ 0.0451998, 2.18295e-08, -1.04939e-07 ],
      "rotation" : [ 2.24577e-07, -2.79801e-08, -2.69104e-08, -1 ]
    },
    {
      "name" : "Bone-F-Hair01",
      "children" : [ 44 ],
      "translation" : [ 0.120881, 1.33562e-07, -0.105259 ],
      "rotation" : [ 0.062621, 1.16785e-07, 0.998037, 1.14702e-07 ]
    },
    {
      "name" : "Tail-Bone-F-Hair01",
      "translation" : [ 0.0452001, 3.05176e-07, -4.80087e-08 ],
      "rotation" : [ 2.38418e-07, 1.04207e-08, -2.8356e-14, -1 ]
    },
    {
      "name" : "Bone-RF-Hair01",
      "children" : [ 46 ],
      "translation" : [ 0.122059, -0.0333894, -0.0959127 ],
      "rotation" : [ 0.0146962, -0.970163, 0.234226, 0.0608722 ]
    },
    {
      "name" : "Tail-Bone-RF-Hair01",
      "translation" : [ 0.0451998, -1.29673e-07, 1.08744e-07 ],
      "rotation" : [ -1.69972e-07, -5.77016e-08, -4.55368e-08, -1 ]
    },
    {
      "name" : "Bip001-L-Clavicle",
      "children" : [ 48 ],
      "translation" : [ 0.151244, 0.0088413, -0.00644417 ],
      "rotation" : [ -0.611638, -0.787468, -0.0603455, 0.0463715 ]
    },
    {
      "name" : "Bip001-L-UpperArm",
      "translation" : [ 0.099455, 0, -1.90735e-08 ],
      "rotation" : [ -0.136872, 0.0134948, 0.193917, -0.971329 ]
    },
    {
      "name" : "Bip001-R-Clavicle",
      "children" : [ 50 ],
      "translation" : [ 0.151244, -0.00884127, -0.00644421 ],
      "rotation" : [ 0.611639, -0.787469, 0.0603433, 0.0463698 ]
    },
    {
      "name" : "Bip001-R-UpperArm",
      "translation" : [ 0.0994549, 0, -3.55271e-17 ],
      "rotation" : [ 0.136872, 0.0134948, -0.193917, -0.971329 ]
    },
    {
      "name" : "Bip001-R-Chest",
      "children" : [ 52, 53 ],
      "translation" : [ 0.0257781, -0.0332835, -0.0109595 ],
      "rotation" : [ -0.730306, 0.0996237, 0.66886, -0.0967171 ]
    },
    {
      "name" : "Bip001-RDO-Chest",
      "translation" : [ -7.6294e-08, 1.7643e-07, 3.8147e-07 ],
      "rotation" : [ -3.3343e-08, 0.206572, -2.38816e-07, -0.978431 ]
    },
    {
      "name" : "Bip001-RUP-Chest",
      "translation" : [ -7.6294e-08, 1.7643e-07, 3.8147e-07 ],
      "rotation" : [ 4.13041e-07, -0.210292, -3.38434e-07, -0.977639 ]
    },
    {
      "name" : "Bip001-L-Chest",
      "children" : [ 55, 56 ],
      "translation" : [ 0.0257781, 0.0332799, -0.0109595 ],
      "rotation" : [ -0.0967185, -0.66886, -0.0996241, -0.730306 ]
    },
    {
      "name" : "Bip001-LDO-Chest",
      "translation" : [ -1.14441e-07, -8.58307e-08, -1.52588e-07 ],
      "rotation" : [ 1.84649e-07, -0.206571, 1.35205e-07, -0.978432 ]
    },
    {
      "name" : "Bip001-LUP-Chest",
      "translation" : [ -3.8147e-08, 1.77636e-17, -0 ],
      "rotation" : [ 4.34367e-07, 0.210293, -1.50438e-07, -0.977638 ]
    },
    {
      "name" : "Bip001-L-Thigh",
      "translation" : [ -7.62939e-08, 0.072399, -1.52588e-07 ],
      "rotation" : [ -0.0840791, 0.0126618, 0.99625, 0.0160132 ]
    },
    {
      "name" : "Bip001-R-Thigh",
      "translation" : [ 1.52588e-07, -0.072399, 5.72204e-08 ],
      "rotation" : [ -0.084079, -0.0126605, 0.99625, -0.0160148 ]
    }
  ],
  "skins" : [
    {
      "inverseBindMatrices" : 0,
      "skeleton" : 1,
      "joints" : [
        1,2,3,4,5,6,7,8,9,10,11,12,13,14,15,16,17,18,19,20,21,22,23,24,25,26,27,28,29,30,31,32,
        33,34,35,36,37,38,39,40,41,42,43,44,45,46,47,48,49,50,51,52,53,54,55,56,57,58
      ]
    }
  ],
  "materials" : [
    {
      "name" : "MI_Female_Hair_0100_Equip01",
      "pbrMetallicRoughness" : {
        "baseColorFactor" : [ 0.3, 0.3, 0.3, 1.0 ],
        "metallicFactor" : 0.1,
        "roughnessFactor" : 0.5
      }
    },
    {
      "name" : "MI_Female_Hair_0100_Equip03",
      "pbrMetallicRoughness" : {
        "baseColorFactor" : [ 0.9, 0.3, 0.3, 1.0 ],
        "metallicFactor" : 0.1,
        "roughnessFactor" : 0.5
      }
    },
    {
      "name" : "MI_Female_Hair_0100_Equip03",
      "pbrMetallicRoughness" : {
        "baseColorFactor" : [ 0.3, 0.9, 0.3, 1.0 ],
        "metallicFactor" : 0.1,
        "roughnessFactor" : 0.5
      }
    },
    {
      "name" : "MI_Female_Hair_0100_Equip03",
      "pbrMetallicRoughness" : {
        "baseColorFactor" : [ 0.3, 0.3, 0.9, 1.0 ],
        "metallicFactor" : 0.1,
        "roughnessFactor" : 0.5
      }
    },
    {
      "name" : "MI_Female_Hair_0100_Equip03",
      "pbrMetallicRoughness" : {
        "baseColorFactor" : [ 0.9, 0.9, 0.9, 1.0 ],
        "metallicFactor" : 0.1,
        "roughnessFactor" : 0.5
      }
    },
    {
      "name" : "MI_Female_Hair_0100_Equip02",
      "pbrMetallicRoughness" : {
        "baseColorFactor" : [ 0.9, 0.9, 0.3, 1.0 ],
        "metallicFactor" : 0.1,
        "roughnessFactor" : 0.5
      }
    },
    {
      "name" : "MI_Female_Hair_0100_Equip03",
      "pbrMetallicRoughness" : {
        "baseColorFactor" : [ 0.9, 0.3, 0.9, 1.0 ],
        "metallicFactor" : 0.1,
        "roughnessFactor" : 0.5
      }
    },
    {
      "name" : "MI_Female_Hair_0100_Equip03",
      "pbrMetallicRoughness" : {
        "baseColorFactor" : [ 0.3, 0.9, 0.9, 1.0 ],
        "metallicFactor" : 0.1,
        "roughnessFactor" : 0.5
      }
    },
    {
      "name" : "MI_Female_Hair_0100_Equip03",
      "pbrMetallicRoughness" : {
        "baseColorFactor" : [ 1, 0.3, 0.3, 1.0 ],
        "metallicFactor" : 0.1,
        "roughnessFactor" : 0.5
      }
    },
    {
      "name" : "MI_Female_Hair_0100_Equip03",
      "pbrMetallicRoughness" : {
        "baseColorFactor" : [ 0.6, 0.3, 0.3, 1.0 ],
        "metallicFactor" : 0.1,
        "roughnessFactor" : 0.5
      }
    },
    {
      "name" : "MI_Female_Hair_0100_Equip02",
      "pbrMetallicRoughness" : {
        "baseColorFactor" : [ 1, 0.9, 0.3, 1.0 ],
        "metallicFactor" : 0.1,
        "roughnessFactor" : 0.5
      }
    },
    {
      "name" : "MI_Female_Hair_0100_Equip03",
      "pbrMetallicRoughness" : {
        "baseColorFactor" : [ 1, 0.3, 0.9, 1.0 ],
        "metallicFactor" : 0.1,
        "roughnessFactor" : 0.5
      }
    },
    {
      "name" : "MI_Female_Hair_0100_Equip02",
      "pbrMetallicRoughness" : {
        "baseColorFactor" : [ 0.6, 0.9, 0.9, 1.0 ],
        "metallicFactor" : 0.1,
        "roughnessFactor" : 0.5
      }
    },
    {
      "name" : "MI_Female_Hair_0100_Equip03",
      "pbrMetallicRoughness" : {
        "baseColorFactor" : [ 0.6, 0.9, 0.3, 1.0 ],
        "metallicFactor" : 0.1,
        "roughnessFactor" : 0.5
      }
    },
    {
      "name" : "MI_Female_Hair_0100_Equip02",
      "pbrMetallicRoughness" : {
        "baseColorFactor" : [ 0.6, 0.3, 0.9, 1.0 ],
        "metallicFactor" : 0.1,
        "roughnessFactor" : 0.5
      }
    },
    {
      "name" : "MI_Female_Hair_0100_Equip03",
      "pbrMetallicRoughness" : {
        "baseColorFactor" : [ 1, 0.9, 0.9, 1.0 ],
        "metallicFactor" : 0.1,
        "roughnessFactor" : 0.5
      }
    },
    {
      "name" : "MI_Female_Hair_0100_Equip04",
      "pbrMetallicRoughness" : {
        "baseColorFactor" : [ 0.3, 1, 0.3, 1.0 ],
        "metallicFactor" : 0.1,
        "roughnessFactor" : 0.5
      }
    }
  ],
  "meshes" : [
    {
      "primitives" : [
        {
          "attributes" : {
            "POSITION" : 2,
            "NORMAL" : 3,
            "TANGENT" : 4,
            "COLOR_0" : 5,
            "JOINTS_0" : 6,
            "WEIGHTS_0" : 7,
            "TEXCOORD_0" : 8,
            "TEXCOORD_1" : 9
          },
          "indices" : 1,
          "material" : 0
        },
        {
          "attributes" : {
            "POSITION" : 11,
            "NORMAL" : 12,
            "TANGENT" : 13,
            "COLOR_0" : 14,
            "JOINTS_0" : 15,
            "WEIGHTS_0" : 16,
            "TEXCOORD_0" : 17,
            "TEXCOORD_1" : 18
          },
          "indices" : 10,
          "material" : 1
        },
        {
          "attributes" : {
            "POSITION" : 20,
            "NORMAL" : 21,
            "TANGENT" : 22,
            "COLOR_0" : 23,
            "JOINTS_0" : 24,
            "WEIGHTS_0" : 25,
            "TEXCOORD_0" : 26,
            "TEXCOORD_1" : 27
          },
          "indices" : 19,
          "material" : 2
        },
        {
          "attributes" : {
            "POSITION" : 29,
            "NORMAL" : 30,
            "TANGENT" : 31,
            "COLOR_0" : 32,
            "JOINTS_0" : 33,
            "WEIGHTS_0" : 34,
            "TEXCOORD_0" : 35,
            "TEXCOORD_1" : 36
          },
          "indices" : 28,
          "material" : 3
        },
        {
          "attributes" : {
            "POSITION" : 38,
            "NORMAL" : 39,
            "TANGENT" : 40,
            "COLOR_0" : 41,
            "JOINTS_0" : 42,
            "WEIGHTS_0" : 43,
            "TEXCOORD_0" : 44,
            "TEXCOORD_1" : 45
          },
          "indices" : 37,
          "material" : 4
        },
        {
          "attributes" : {
            "POSITION" : 47,
            "NORMAL" : 48,
            "TANGENT" : 49,
            "COLOR_0" : 50,
            "JOINTS_0" : 51,
            "WEIGHTS_0" : 52,
            "TEXCOORD_0" : 53,
            "TEXCOORD_1" : 54
          },
          "indices" : 46,
          "material" : 5
        },
        {
          "attributes" : {
            "POSITION" : 56,
            "NORMAL" : 57,
            "TANGENT" : 58,
            "COLOR_0" : 59,
            "JOINTS_0" : 60,
            "WEIGHTS_0" : 61,
            "TEXCOORD_0" : 62,
            "TEXCOORD_1" : 63
          },
          "indices" : 55,
          "material" : 6
        },
        {
          "attributes" : {
            "POSITION" : 65,
            "NORMAL" : 66,
            "TANGENT" : 67,
            "COLOR_0" : 68,
            "JOINTS_0" : 69,
            "WEIGHTS_0" : 70,
            "TEXCOORD_0" : 71,
            "TEXCOORD_1" : 72
          },
          "indices" : 64,
          "material" : 7
        },
        {
          "attributes" : {
            "POSITION" : 74,
            "NORMAL" : 75,
            "TANGENT" : 76,
            "COLOR_0" : 77,
            "JOINTS_0" : 78,
            "WEIGHTS_0" : 79,
            "TEXCOORD_0" : 80,
            "TEXCOORD_1" : 81
          },
          "indices" : 73,
          "material" : 8
        },
        {
          "attributes" : {
            "POSITION" : 83,
            "NORMAL" : 84,
            "TANGENT" : 85,
            "COLOR_0" : 86,
            "JOINTS_0" : 87,
            "WEIGHTS_0" : 88,
            "TEXCOORD_0" : 89,
            "TEXCOORD_1" : 90
          },
          "indices" : 82,
          "material" : 9
        },
        {
          "attributes" : {
            "POSITION" : 92,
            "NORMAL" : 93,
            "TANGENT" : 94,
            "COLOR_0" : 95,
            "JOINTS_0" : 96,
            "WEIGHTS_0" : 97,
            "TEXCOORD_0" : 98,
            "TEXCOORD_1" : 99
          },
          "indices" : 91,
          "material" : 10
        },
        {
          "attributes" : {
            "POSITION" : 101,
            "NORMAL" : 102,
            "TANGENT" : 103,
            "COLOR_0" : 104,
            "JOINTS_0" : 105,
            "WEIGHTS_0" : 106,
            "TEXCOORD_0" : 107,
            "TEXCOORD_1" : 108
          },
          "indices" : 100,
          "material" : 11
        },
        {
          "attributes" : {
            "POSITION" : 110,
            "NORMAL" : 111,
            "TANGENT" : 112,
            "COLOR_0" : 113,
            "JOINTS_0" : 114,
            "WEIGHTS_0" : 115,
            "TEXCOORD_0" : 116,
            "TEXCOORD_1" : 117
          },
          "indices" : 109,
          "material" : 12
        },
        {
          "attributes" : {
            "POSITION" : 119,
            "NORMAL" : 120,
            "TANGENT" : 121,
            "COLOR_0" : 122,
            "JOINTS_0" : 123,
            "WEIGHTS_0" : 124,
            "TEXCOORD_0" : 125,
            "TEXCOORD_1" : 126
          },
          "indices" : 118,
          "material" : 13
        },
        {
          "attributes" : {
            "POSITION" : 128,
            "NORMAL" : 129,
            "TANGENT" : 130,
            "COLOR_0" : 131,
            "JOINTS_0" : 132,
            "WEIGHTS_0" : 133,
            "TEXCOORD_0" : 134,
            "TEXCOORD_1" : 135
          },
          "indices" : 127,
          "material" : 14
        },
        {
          "attributes" : {
            "POSITION" : 137,
            "NORMAL" : 138,
            "TANGENT" : 139,
            "COLOR_0" : 140,
            "JOINTS_0" : 141,
            "WEIGHTS_0" : 142,
            "TEXCOORD_0" : 143,
            "TEXCOORD_1" : 144
          },
          "indices" : 136,
          "material" : 15
        },
        {
          "attributes" : {
            "POSITION" : 146,
            "NORMAL" : 147,
            "TANGENT" : 148,
            "COLOR_0" : 149,
            "JOINTS_0" : 150,
            "WEIGHTS_0" : 151,
            "TEXCOORD_0" : 152,
            "TEXCOORD_1" : 153
          },
          "indices" : 145,
          "material" : 16
        }
      ],
      "name" : "Female_Hair_0100"
    }
  ],
  "buffers" : [
    {
      "uri" : "Female_Hair_0100.bin",
      "byteLength" : 2213648
    }
  ],
  "bufferViews" : [
    {
      "buffer" : 0,
      "byteOffset" : 0,
      "byteLength" : 3712
    },
    {
      "buffer" : 0,
      "byteOffset" : 3712,
      "byteLength" : 58892
    },
    {
      "buffer" : 0,
      "byteOffset" : 62604,
      "byteLength" : 151008
    },
    {
      "buffer" : 0,
      "byteOffset" : 213612,
      "byteLength" : 151008
    },
    {
      "buffer" : 0,
      "byteOffset" : 364620,
      "byteLength" : 201344
    },
    {
      "buffer" : 0,
      "byteOffset" : 565964,
      "byteLength" : 50336
    },
    {
      "buffer" : 0,
      "byteOffset" : 616300,
      "byteLength" : 100672
    },
    {
      "buffer" : 0,
      "byteOffset" : 716972,
      "byteLength" : 50336
    },
    {
      "buffer" : 0,
      "byteOffset" : 767308,
      "byteLength" : 100672
    },
    {
      "buffer" : 0,
      "byteOffset" : 867980,
      "byteLength" : 100672
    },
    {
      "buffer" : 0,
      "byteOffset" : 968652,
      "byteLength" : 2756
    },
    {
      "buffer" : 0,
      "byteOffset" : 971408,
      "byteLength" : 6096
    },
    {
      "buffer" : 0,
      "byteOffset" : 977504,
      "byteLength" : 6096
    },
    {
      "buffer" : 0,
      "byteOffset" : 983600,
      "byteLength" : 8128
    },
    {
      "buffer" : 0,
      "byteOffset" : 991728,
      "byteLength" : 2032
    },
    {
      "buffer" : 0,
      "byteOffset" : 993760,
      "byteLength" : 4064
    },
    {
      "buffer" : 0,
      "byteOffset" : 997824,
      "byteLength" : 2032
    },
    {
      "buffer" : 0,
      "byteOffset" : 999856,
      "byteLength" : 4064
    },
    {
      "buffer" : 0,
      "byteOffset" : 1003920,
      "byteLength" : 4064
    },
    {
      "buffer" : 0,
      "byteOffset" : 1007984,
      "byteLength" : 3824
    },
    {
      "buffer" : 0,
      "byteOffset" : 1011808,
      "byteLength" : 8496
    },
    {
      "buffer" : 0,
      "byteOffset" : 1020304,
      "byteLength" : 8496
    },
    {
      "buffer" : 0,
      "byteOffset" : 1028800,
      "byteLength" : 11328
    },
    {
      "buffer" : 0,
      "byteOffset" : 1040128,
      "byteLength" : 2832
    },
    {
      "buffer" : 0,
      "byteOffset" : 1042960,
      "byteLength" : 5664
    },
    {
      "buffer" : 0,
      "byteOffset" : 1048624,
      "byteLength" : 2832
    },
    {
      "buffer" : 0,
      "byteOffset" : 1051456,
      "byteLength" : 5664
    },
    {
      "buffer" : 0,
      "byteOffset" : 1057120,
      "byteLength" : 5664
    },
    {
      "buffer" : 0,
      "byteOffset" : 1062784,
      "byteLength" : 7920
    },
    {
      "buffer" : 0,
      "byteOffset" : 1070704,
      "byteLength" : 16332
    },
    {
      "buffer" : 0,
      "byteOffset" : 1087036,
      "byteLength" : 16332
    },
    {
      "buffer" : 0,
      "byteOffset" : 1103368,
      "byteLength" : 21776
    },
    {
      "buffer" : 0,
      "byteOffset" : 1125144,
      "byteLength" : 5444
    },
    {
      "buffer" : 0,
      "byteOffset" : 1130588,
      "byteLength" : 10888
    },
    {
      "buffer" : 0,
      "byteOffset" : 1141476,
      "byteLength" : 5444
    },
    {
      "buffer" : 0,
      "byteOffset" : 1146920,
      "byteLength" : 10888
    },
    {
      "buffer" : 0,
      "byteOffset" : 1157808,
      "byteLength" : 10888
    },
    {
      "buffer" : 0,
      "byteOffset" : 1168696,
      "byteLength" : 7188
    },
    {
      "buffer" : 0,
      "byteOffset" : 1175884,
      "byteLength" : 14604
    },
    {
      "buffer" : 0,
      "byteOffset" : 1190488,
      "byteLength" : 14604
    },
    {
      "buffer" : 0,
      "byteOffset" : 1205092,
      "byteLength" : 19472
    },
    {
      "buffer" : 0,
      "byteOffset" : 1224564,
      "byteLength" : 4868
    },
    {
      "buffer" : 0,
      "byteOffset" : 1229432,
      "byteLength" : 9736
    },
    {
      "buffer" : 0,
      "byteOffset" : 1239168,
      "byteLength" : 4868
    },
    {
      "buffer" : 0,
      "byteOffset" : 1244036,
      "byteLength" : 9736
    },
    {
      "buffer" : 0,
      "byteOffset" : 1253772,
      "byteLength" : 9736
    },
    {
      "buffer" : 0,
      "byteOffset" : 1263508,
      "byteLength" : 3156
    },
    {
      "buffer" : 0,
      "byteOffset" : 1266664,
      "byteLength" : 6612
    },
    {
      "buffer" : 0,
      "byteOffset" : 1273276,
      "byteLength" : 6612
    },
    {
      "buffer" : 0,
      "byteOffset" : 1279888,
      "byteLength" : 8816
    },
    {
      "buffer" : 0,
      "byteOffset" : 1288704,
      "byteLength" : 2204
    },
    {
      "buffer" : 0,
      "byteOffset" : 1290908,
      "byteLength" : 4408
    },
    {
      "buffer" : 0,
      "byteOffset" : 1295316,
      "byteLength" : 2204
    },
    {
      "buffer" : 0,
      "byteOffset" : 1297520,
      "byteLength" : 4408
    },
    {
      "buffer" : 0,
      "byteOffset" : 1301928,
      "byteLength" : 4408
    },
    {
      "buffer" : 0,
      "byteOffset" : 1306336,
      "byteLength" : 4652
    },
    {
      "buffer" : 0,
      "byteOffset" : 1310988,
      "byteLength" : 9948
    },
    {
      "buffer" : 0,
      "byteOffset" : 1320936,
      "byteLength" : 9948
    },
    {
      "buffer" : 0,
      "byteOffset" : 1330884,
      "byteLength" : 13264
    },
    {
      "buffer" : 0,
      "byteOffset" : 1344148,
      "byteLength" : 3316
    },
    {
      "buffer" : 0,
      "byteOffset" : 1347464,
      "byteLength" : 6632
    },
    {
      "buffer" : 0,
      "byteOffset" : 1354096,
      "byteLength" : 3316
    },
    {
      "buffer" : 0,
      "byteOffset" : 1357412,
      "byteLength" : 6632
    },
    {
      "buffer" : 0,
      "byteOffset" : 1364044,
      "byteLength" : 6632
    },
    {
      "buffer" : 0,
      "byteOffset" : 1370676,
      "byteLength" : 4004
    },
    {
      "buffer" : 0,
      "byteOffset" : 1374680,
      "byteLength" : 8280
    },
    {
      "buffer" : 0,
      "byteOffset" : 1382960,
      "byteLength" : 8280
    },
    {
      "buffer" : 0,
      "byteOffset" : 1391240,
      "byteLength" : 11040
    },
    {
      "buffer" : 0,
      "byteOffset" : 1402280,
      "byteLength" : 2760
    },
    {
      "buffer" : 0,
      "byteOffset" : 1405040,
      "byteLength" : 5520
    },
    {
      "buffer" : 0,
      "byteOffset" : 1410560,
      "byteLength" : 2760
    },
    {
      "buffer" : 0,
      "byteOffset" : 1413320,
      "byteLength" : 5520
    },
    {
      "buffer" : 0,
      "byteOffset" : 1418840,
      "byteLength" : 5520
    },
    {
      "buffer" : 0,
      "byteOffset" : 1424360,
      "byteLength" : 2040
    },
    {
      "buffer" : 0,
      "byteOffset" : 1426400,
      "byteLength" : 4992
    },
    {
      "buffer" : 0,
      "byteOffset" : 1431392,
      "byteLength" : 4992
    },
    {
      "buffer" : 0,
      "byteOffset" : 1436384,
      "byteLength" : 6656
    },
    {
      "buffer" : 0,
      "byteOffset" : 1443040,
      "byteLength" : 1664
    },
    {
      "buffer" : 0,
      "byteOffset" : 1444704,
      "byteLength" : 3328
    },
    {
      "buffer" : 0,
      "byteOffset" : 1448032,
      "byteLength" : 1664
    },
    {
      "buffer" : 0,
      "byteOffset" : 1449696,
      "byteLength" : 3328
    },
    {
      "buffer" : 0,
      "byteOffset" : 1453024,
      "byteLength" : 3328
    },
    {
      "buffer" : 0,
      "byteOffset" : 1456352,
      "byteLength" : 3308
    },
    {
      "buffer" : 0,
      "byteOffset" : 1459660,
      "byteLength" : 7524
    },
    {
      "buffer" : 0,
      "byteOffset" : 1467184,
      "byteLength" : 7524
    },
    {
      "buffer" : 0,
      "byteOffset" : 1474708,
      "byteLength" : 10032
    },
    {
      "buffer" : 0,
      "byteOffset" : 1484740,
      "byteLength" : 2508
    },
    {
      "buffer" : 0,
      "byteOffset" : 1487248,
      "byteLength" : 5016
    },
    {
      "buffer" : 0,
      "byteOffset" : 1492264,
      "byteLength" : 2508
    },
    {
      "buffer" : 0,
      "byteOffset" : 1494772,
      "byteLength" : 5016
    },
    {
      "buffer" : 0,
      "byteOffset" : 1499788,
      "byteLength" : 5016
    },
    {
      "buffer" : 0,
      "byteOffset" : 1504804,
      "byteLength" : 228
    },
    {
      "buffer" : 0,
      "byteOffset" : 1505032,
      "byteLength" : 528
    },
    {
      "buffer" : 0,
      "byteOffset" : 1505560,
      "byteLength" : 528
    },
    {
      "buffer" : 0,
      "byteOffset" : 1506088,
      "byteLength" : 704
    },
    {
      "buffer" : 0,
      "byteOffset" : 1506792,
      "byteLength" : 176
    },
    {
      "buffer" : 0,
      "byteOffset" : 1506968,
      "byteLength" : 352
    },
    {
      "buffer" : 0,
      "byteOffset" : 1507320,
      "byteLength" : 176
    },
    {
      "buffer" : 0,
      "byteOffset" : 1507496,
      "byteLength" : 352
    },
    {
      "buffer" : 0,
      "byteOffset" : 1507848,
      "byteLength" : 352
    },
    {
      "buffer" : 0,
      "byteOffset" : 1508200,
      "byteLength" : 4380
    },
    {
      "buffer" : 0,
      "byteOffset" : 1512580,
      "byteLength" : 9372
    },
    {
      "buffer" : 0,
      "byteOffset" : 1521952,
      "byteLength" : 9372
    },
    {
      "buffer" : 0,
      "byteOffset" : 1531324,
      "byteLength" : 12496
    },
    {
      "buffer" : 0,
      "byteOffset" : 1543820,
      "byteLength" : 3124
    },
    {
      "buffer" : 0,
      "byteOffset" : 1546944,
      "byteLength" : 6248
    },
    {
      "buffer" : 0,
      "byteOffset" : 1553192,
      "byteLength" : 3124
    },
    {
      "buffer" : 0,
      "byteOffset" : 1556316,
      "byteLength" : 6248
    },
    {
      "buffer" : 0,
      "byteOffset" : 1562564,
      "byteLength" : 6248
    },
    {
      "buffer" : 0,
      "byteOffset" : 1568812,
      "byteLength" : 500
    },
    {
      "buffer" : 0,
      "byteOffset" : 1569312,
      "byteLength" : 1008
    },
    {
      "buffer" : 0,
      "byteOffset" : 1570320,
      "byteLength" : 1008
    },
    {
      "buffer" : 0,
      "byteOffset" : 1571328,
      "byteLength" : 1344
    },
    {
      "buffer" : 0,
      "byteOffset" : 1572672,
      "byteLength" : 336
    },
    {
      "buffer" : 0,
      "byteOffset" : 1573008,
      "byteLength" : 672
    },
    {
      "buffer" : 0,
      "byteOffset" : 1573680,
      "byteLength" : 336
    },
    {
      "buffer" : 0,
      "byteOffset" : 1574016,
      "byteLength" : 672
    },
    {
      "buffer" : 0,
      "byteOffset" : 1574688,
      "byteLength" : 672
    },
    {
      "buffer" : 0,
      "byteOffset" : 1575360,
      "byteLength" : 15644
    },
    {
      "buffer" : 0,
      "byteOffset" : 1591004,
      "byteLength" : 29292
    },
    {
      "buffer" : 0,
      "byteOffset" : 1620296,
      "byteLength" : 29292
    },
    {
      "buffer" : 0,
      "byteOffset" : 1649588,
      "byteLength" : 39056
    },
    {
      "buffer" : 0,
      "byteOffset" : 1688644,
      "byteLength" : 9764
    },
    {
      "buffer" : 0,
      "byteOffset" : 1698408,
      "byteLength" : 19528
    },
    {
      "buffer" : 0,
      "byteOffset" : 1717936,
      "byteLength" : 9764
    },
    {
      "buffer" : 0,
      "byteOffset" : 1727700,
      "byteLength" : 19528
    },
    {
      "buffer" : 0,
      "byteOffset" : 1747228,
      "byteLength" : 19528
    },
    {
      "buffer" : 0,
      "byteOffset" : 1766756,
      "byteLength" : 3092
    },
    {
      "buffer" : 0,
      "byteOffset" : 1769848,
      "byteLength" : 6012
    },
    {
      "buffer" : 0,
      "byteOffset" : 1775860,
      "byteLength" : 6012
    },
    {
      "buffer" : 0,
      "byteOffset" : 1781872,
      "byteLength" : 8016
    },
    {
      "buffer" : 0,
      "byteOffset" : 1789888,
      "byteLength" : 2004
    },
    {
      "buffer" : 0,
      "byteOffset" : 1791892,
      "byteLength" : 4008
    },
    {
      "buffer" : 0,
      "byteOffset" : 1795900,
      "byteLength" : 2004
    },
    {
      "buffer" : 0,
      "byteOffset" : 1797904,
      "byteLength" : 4008
    },
    {
      "buffer" : 0,
      "byteOffset" : 1801912,
      "byteLength" : 4008
    },
    {
      "buffer" : 0,
      "byteOffset" : 1805920,
      "byteLength" : 17732
    },
    {
      "buffer" : 0,
      "byteOffset" : 1823652,
      "byteLength" : 34056
    },
    {
      "buffer" : 0,
      "byteOffset" : 1857708,
      "byteLength" : 34056
    },
    {
      "buffer" : 0,
      "byteOffset" : 1891764,
      "byteLength" : 45408
    },
    {
      "buffer" : 0,
      "byteOffset" : 1937172,
      "byteLength" : 11352
    },
    {
      "buffer" : 0,
      "byteOffset" : 1948524,
      "byteLength" : 22704
    },
    {
      "buffer" : 0,
      "byteOffset" : 1971228,
      "byteLength" : 11352
    },
    {
      "buffer" : 0,
      "byteOffset" : 1982580,
      "byteLength" : 22704
    },
    {
      "buffer" : 0,
      "byteOffset" : 2005284,
      "byteLength" : 22704
    },
    {
      "buffer" : 0,
      "byteOffset" : 2027988,
      "byteLength" : 16532
    },
    {
      "buffer" : 0,
      "byteOffset" : 2044520,
      "byteLength" : 28188
    },
    {
      "buffer" : 0,
      "byteOffset" : 2072708,
      "byteLength" : 28188
    },
    {
      "buffer" : 0,
      "byteOffset" : 2100896,
      "byteLength" : 37584
    },
    {
      "buffer" : 0,
      "byteOffset" : 2138480,
      "byteLength" : 9396
    },
    {
      "buffer" : 0,
      "byteOffset" : 2147876,
      "byteLength" : 18792
    },
    {
      "buffer" : 0,
      "byteOffset" : 2166668,
      "byteLength" : 9396
    },
    {
      "buffer" : 0,
      "byteOffset" : 2176064,
      "byteLength" : 18792
    },
    {
      "buffer" : 0,
      "byteOffset" : 2194856,
      "byteLength" : 18792
    }
  ],
  "accessors" : [
    {
      "bufferView" : 0,
      "componentType" : 5126,
      "count" : 58,
      "type" : "MAT4"
    },
    {
      "bufferView" : 1,
      "componentType" : 5123,
      "count" : 29445,
      "type" : "SCALAR"
    },
    {
      "bufferView" : 2,
      "min" : [ -0.108949, 1.01174, -0.18621 ],
      "max" : [ 0.110385, 1.63481, 0.0721778 ],
      "componentType" : 5126,
      "count" : 12584,
      "type" : "VEC3"
    },
    {
      "bufferView" : 3,
      "componentType" : 5126,
      "count" : 12584,
      "type" : "VEC3"
    },
    {
      "bufferView" : 4,
      "componentType" : 5126,
      "count" : 12584,
      "type" : "VEC4"
    },
    {
      "bufferView" : 5,
      "normalized" : true,
      "componentType" : 5121,
      "count" : 12584,
      "type" : "VEC4"
    },
    {
      "bufferView" : 6,
      "componentType" : 5123,
      "count" : 12584,
      "type" : "VEC4"
    },
    {
      "bufferView" : 7,
      "normalized" : true,
      "componentType" : 5121,
      "count" : 12584,
      "type" : "VEC4"
    },
    {
      "bufferView" : 8,
      "componentType" : 5126,
      "count" : 12584,
      "type" : "VEC2"
    },
    {
      "bufferView" : 9,
      "componentType" : 5126,
      "count" : 12584,
      "type" : "VEC2"
    },
    {
      "bufferView" : 10,
      "componentType" : 5123,
      "count" : 1377,
      "type" : "SCALAR"
    },
    {
      "bufferView" : 11,
      "min" : [ -0.110607, 0.927768, -0.156097 ],
      "max" : [ 0.105064, 1.53026, -0.0387638 ],
      "componentType" : 5126,
      "count" : 508,
      "type" : "VEC3"
    },
    {
      "bufferView" : 12,
      "componentType" : 5126,
      "count" : 508,
      "type" : "VEC3"
    },
    {
      "bufferView" : 13,
      "componentType" : 5126,
      "count" : 508,
      "type" : "VEC4"
    },
    {
      "bufferView" : 14,
      "normalized" : true,
      "componentType" : 5121,
      "count" : 508,
      "type" : "VEC4"
    },
    {
      "bufferView" : 15,
      "componentType" : 5123,
      "count" : 508,
      "type" : "VEC4"
    },
    {
      "bufferView" : 16,
      "normalized" : true,
      "componentType" : 5121,
      "count" : 508,
      "type" : "VEC4"
    },
    {
      "bufferView" : 17,
      "componentType" : 5126,
      "count" : 508,
      "type" : "VEC2"
    },
    {
      "bufferView" : 18,
      "componentType" : 5126,
      "count" : 508,
      "type" : "VEC2"
    },
    {
      "bufferView" : 19,
      "componentType" : 5123,
      "count" : 1911,
      "type" : "SCALAR"
    },
    {
      "bufferView" : 20,
      "min" : [ -0.103534, 0.923425, -0.184688 ],
      "max" : [ 0.100748, 1.08495, -0.107937 ],
      "componentType" : 5126,
      "count" : 708,
      "type" : "VEC3"
    },
    {
      "bufferView" : 21,
      "componentType" : 5126,
      "count" : 708,
      "type" : "VEC3"
    },
    {
      "bufferView" : 22,
      "componentType" : 5126,
      "count" : 708,
      "type" : "VEC4"
    },
    {
      "bufferView" : 23,
      "normalized" : true,
      "componentType" : 5121,
      "count" : 708,
      "type" : "VEC4"
    },
    {
      "bufferView" : 24,
      "componentType" : 5123,
      "count" : 708,
      "type" : "VEC4"
    },
    {
      "bufferView" : 25,
      "normalized" : true,
      "componentType" : 5121,
      "count" : 708,
      "type" : "VEC4"
    },
    {
      "bufferView" : 26,
      "componentType" : 5126,
      "count" : 708,
      "type" : "VEC2"
    },
    {
      "bufferView" : 27,
      "componentType" : 5126,
      "count" : 708,
      "type" : "VEC2"
    },
    {
      "bufferView" : 28,
      "componentType" : 5123,
      "count" : 3960,
      "type" : "SCALAR"
    },
    {
      "bufferView" : 29,
      "min" : [ -0.0787389, 1.4463, -0.134611 ],
      "max" : [ 0.0960387, 1.6384, 0.0265359 ],
      "componentType" : 5126,
      "count" : 1361,
      "type" : "VEC3"
    },
    {
      "bufferView" : 30,
      "componentType" : 5126,
      "count" : 1361,
      "type" : "VEC3"
    },
    {
      "bufferView" : 31,
      "componentType" : 5126,
      "count" : 1361,
      "type" : "VEC4"
    },
    {
      "bufferView" : 32,
      "normalized" : true,
      "componentType" : 5121,
      "count" : 1361,
      "type" : "VEC4"
    },
    {
      "bufferView" : 33,
      "componentType" : 5123,
      "count" : 1361,
      "type" : "VEC4"
    },
    {
      "bufferView" : 34,
      "normalized" : true,
      "componentType" : 5121,
      "count" : 1361,
      "type" : "VEC4"
    },
    {
      "bufferView" : 35,
      "componentType" : 5126,
      "count" : 1361,
      "type" : "VEC2"
    },
    {
      "bufferView" : 36,
      "componentType" : 5126,
      "count" : 1361,
      "type" : "VEC2"
    },
    {
      "bufferView" : 37,
      "componentType" : 5123,
      "count" : 3594,
      "type" : "SCALAR"
    },
    {
      "bufferView" : 38,
      "min" : [ -0.0903198, 1.44684, -0.134703 ],
      "max" : [ 0.0945063, 1.63786, 0.0311241 ],
      "componentType" : 5126,
      "count" : 1217,
      "type" : "VEC3"
    },
    {
      "bufferView" : 39,
      "componentType" : 5126,
      "count" : 1217,
      "type" : "VEC3"
    },
    {
      "bufferView" : 40,
      "componentType" : 5126,
      "count" : 1217,
      "type" : "VEC4"
    },
    {
      "bufferView" : 41,
      "normalized" : true,
      "componentType" : 5121,
      "count" : 1217,
      "type" : "VEC4"
    },
    {
      "bufferView" : 42,
      "componentType" : 5123,
      "count" : 1217,
      "type" : "VEC4"
    },
    {
      "bufferView" : 43,
      "normalized" : true,
      "componentType" : 5121,
      "count" : 1217,
      "type" : "VEC4"
    },
    {
      "bufferView" : 44,
      "componentType" : 5126,
      "count" : 1217,
      "type" : "VEC2"
    },
    {
      "bufferView" : 45,
      "componentType" : 5126,
      "count" : 1217,
      "type" : "VEC2"
    },
    {
      "bufferView" : 46,
      "componentType" : 5123,
      "count" : 1578,
      "type" : "SCALAR"
    },
    {
      "bufferView" : 47,
      "min" : [ -0.0940617, 1.45055, -0.136752 ],
      "max" : [ 0.0983781, 1.63923, 0.0266806 ],
      "componentType" : 5126,
      "count" : 551,
      "type" : "VEC3"
    },
    {
      "bufferView" : 48,
      "componentType" : 5126,
      "count" : 551,
      "type" : "VEC3"
    },
    {
      "bufferView" : 49,
      "componentType" : 5126,
      "count" : 551,
      "type" : "VEC4"
    },
    {
      "bufferView" : 50,
      "normalized" : true,
      "componentType" : 5121,
      "count" : 551,
      "type" : "VEC4"
    },
    {
      "bufferView" : 51,
      "componentType" : 5123,
      "count" : 551,
      "type" : "VEC4"
    },
    {
      "bufferView" : 52,
      "normalized" : true,
      "componentType" : 5121,
      "count" : 551,
      "type" : "VEC4"
    },
    {
      "bufferView" : 53,
      "componentType" : 5126,
      "count" : 551,
      "type" : "VEC2"
    },
    {
      "bufferView" : 54,
      "componentType" : 5126,
      "count" : 551,
      "type" : "VEC2"
    },
    {
      "bufferView" : 55,
      "componentType" : 5123,
      "count" : 2325,
      "type" : "SCALAR"
    },
    {
      "bufferView" : 56,
      "min" : [ -0.0353139, 0.925266, -0.195542 ],
      "max" : [ 0.113478, 1.47156, -0.0540766 ],
      "componentType" : 5126,
      "count" : 829,
      "type" : "VEC3"
    },
    {
      "bufferView" : 57,
      "componentType" : 5126,
      "count" : 829,
      "type" : "VEC3"
    },
    {
      "bufferView" : 58,
      "componentType" : 5126,
      "count" : 829,
      "type" : "VEC4"
    },
    {
      "bufferView" : 59,
      "normalized" : true,
      "componentType" : 5121,
      "count" : 829,
      "type" : "VEC4"
    },
    {
      "bufferView" : 60,
      "componentType" : 5123,
      "count" : 829,
      "type" : "VEC4"
    },
    {
      "bufferView" : 61,
      "normalized" : true,
      "componentType" : 5121,
      "count" : 829,
      "type" : "VEC4"
    },
    {
      "bufferView" : 62,
      "componentType" : 5126,
      "count" : 829,
      "type" : "VEC2"
    },
    {
      "bufferView" : 63,
      "componentType" : 5126,
      "count" : 829,
      "type" : "VEC2"
    },
    {
      "bufferView" : 64,
      "componentType" : 5123,
      "count" : 2001,
      "type" : "SCALAR"
    },
    {
      "bufferView" : 65,
      "min" : [ -0.110076, 0.924167, -0.192474 ],
      "max" : [ 0.00929028, 1.48661, -0.0561016 ],
      "componentType" : 5126,
      "count" : 690,
      "type" : "VEC3"
    },
    {
      "bufferView" : 66,
      "componentType" : 5126,
      "count" : 690,
      "type" : "VEC3"
    },
    {
      "bufferView" : 67,
      "componentType" : 5126,
      "count" : 690,
      "type" : "VEC4"
    },
    {
      "bufferView" : 68,
      "normalized" : true,
      "componentType" : 5121,
      "count" : 690,
      "type" : "VEC4"
    },
    {
      "bufferView" : 69,
      "componentType" : 5123,
      "count" : 690,
      "type" : "VEC4"
    },
    {
      "bufferView" : 70,
      "normalized" : true,
      "componentType" : 5121,
      "count" : 690,
      "type" : "VEC4"
    },
    {
      "bufferView" : 71,
      "componentType" : 5126,
      "count" : 690,
      "type" : "VEC2"
    },
    {
      "bufferView" : 72,
      "componentType" : 5126,
      "count" : 690,
      "type" : "VEC2"
    },
    {
      "bufferView" : 73,
      "componentType" : 5123,
      "count" : 1020,
      "type" : "SCALAR"
    },
    {
      "bufferView" : 74,
      "min" : [ -0.113962, 0.9211, -0.200018 ],
      "max" : [ 0.113302, 1.48688, -0.0686154 ],
      "componentType" : 5126,
      "count" : 416,
      "type" : "VEC3"
    },
    {
      "bufferView" : 75,
      "componentType" : 5126,
      "count" : 416,
      "type" : "VEC3"
    },
    {
      "bufferView" : 76,
      "componentType" : 5126,
      "count" : 416,
      "type" : "VEC4"
    },
    {
      "bufferView" : 77,
      "normalized" : true,
      "componentType" : 5121,
      "count" : 416,
      "type" : "VEC4"
    },
    {
      "bufferView" : 78,
      "componentType" : 5123,
      "count" : 416,
      "type" : "VEC4"
    },
    {
      "bufferView" : 79,
      "normalized" : true,
      "componentType" : 5121,
      "count" : 416,
      "type" : "VEC4"
    },
    {
      "bufferView" : 80,
      "componentType" : 5126,
      "count" : 416,
      "type" : "VEC2"
    },
    {
      "bufferView" : 81,
      "componentType" : 5126,
      "count" : 416,
      "type" : "VEC2"
    },
    {
      "bufferView" : 82,
      "componentType" : 5123,
      "count" : 1653,
      "type" : "SCALAR"
    },
    {
      "bufferView" : 83,
      "min" : [ -0.0844604, 1.34771, -0.0498982 ],
      "max" : [ -0.0466246, 1.46684, 0.046542 ],
      "componentType" : 5126,
      "count" : 627,
      "type" : "VEC3"
    },
    {
      "bufferView" : 84,
      "componentType" : 5126,
      "count" : 627,
      "type" : "VEC3"
    },
    {
      "bufferView" : 85,
      "componentType" : 5126,
      "count" : 627,
      "type" : "VEC4"
    },
    {
      "bufferView" : 86,
      "normalized" : true,
      "componentType" : 5121,
      "count" : 627,
      "type" : "VEC4"
    },
    {
      "bufferView" : 87,
      "componentType" : 5123,
      "count" : 627,
      "type" : "VEC4"
    },
    {
      "bufferView" : 88,
      "normalized" : true,
      "componentType" : 5121,
      "count" : 627,
      "type" : "VEC4"
    },
    {
      "bufferView" : 89,
      "componentType" : 5126,
      "count" : 627,
      "type" : "VEC2"
    },
    {
      "bufferView" : 90,
      "componentType" : 5126,
      "count" : 627,
      "type" : "VEC2"
    },
    {
      "bufferView" : 91,
      "componentType" : 5123,
      "count" : 114,
      "type" : "SCALAR"
    },
    {
      "bufferView" : 92,
      "min" : [ -0.0901705, 1.34876, -0.0400854 ],
      "max" : [ -0.0564351, 1.45923, 0.0198807 ],
      "componentType" : 5126,
      "count" : 44,
      "type" : "VEC3"
    },
    {
      "bufferView" : 93,
      "componentType" : 5126,
      "count" : 44,
      "type" : "VEC3"
    },
    {
      "bufferView" : 94,
      "componentType" : 5126,
      "count" : 44,
      "type" : "VEC4"
    },
    {
      "bufferView" : 95,
      "normalized" : true,
      "componentType" : 5121,
      "count" : 44,
      "type" : "VEC4"
    },
    {
      "bufferView" : 96,
      "componentType" : 5123,
      "count" : 44,
      "type" : "VEC4"
    },
    {
      "bufferView" : 97,
      "normalized" : true,
      "componentType" : 5121,
      "count" : 44,
      "type" : "VEC4"
    },
    {
      "bufferView" : 98,
      "componentType" : 5126,
      "count" : 44,
      "type" : "VEC2"
    },
    {
      "bufferView" : 99,
      "componentType" : 5126,
      "count" : 44,
      "type" : "VEC2"
    },
    {
      "bufferView" : 100,
      "componentType" : 5123,
      "count" : 2190,
      "type" : "SCALAR"
    },
    {
      "bufferView" : 101,
      "min" : [ 0.0528171, 1.34501, -0.0455573 ],
      "max" : [ 0.0836269, 1.46662, 0.0522198 ],
      "componentType" : 5126,
      "count" : 781,
      "type" : "VEC3"
    },
    {
      "bufferView" : 102,
      "componentType" : 5126,
      "count" : 781,
      "type" : "VEC3"
    },
    {
      "bufferView" : 103,
      "componentType" : 5126,
      "count" : 781,
      "type" : "VEC4"
    },
    {
      "bufferView" : 104,
      "normalized" : true,
      "componentType" : 5121,
      "count" : 781,
      "type" : "VEC4"
    },
    {
      "bufferView" : 105,
      "componentType" : 5123,
      "count" : 781,
      "type" : "VEC4"
    },
    {
      "bufferView" : 106,
      "normalized" : true,
      "componentType" : 5121,
      "count" : 781,
      "type" : "VEC4"
    },
    {
      "bufferView" : 107,
      "componentType" : 5126,
      "count" : 781,
      "type" : "VEC2"
    },
    {
      "bufferView" : 108,
      "componentType" : 5126,
      "count" : 781,
      "type" : "VEC2"
    },
    {
      "bufferView" : 109,
      "componentType" : 5123,
      "count" : 249,
      "type" : "SCALAR"
    },
    {
      "bufferView" : 110,
      "min" : [ 0.048052, 1.34699, -0.0404255 ],
      "max" : [ 0.0860479, 1.47503, 0.0357291 ],
      "componentType" : 5126,
      "count" : 84,
      "type" : "VEC3"
    },
    {
      "bufferView" : 111,
      "componentType" : 5126,
      "count" : 84,
      "type" : "VEC3"
    },
    {
      "bufferView" : 112,
      "componentType" : 5126,
      "count" : 84,
      "type" : "VEC4"
    },
    {
      "bufferView" : 113,
      "normalized" : true,
      "componentType" : 5121,
      "count" : 84,
      "type" : "VEC4"
    },
    {
      "bufferView" : 114,
      "componentType" : 5123,
      "count" : 84,
      "type" : "VEC4"
    },
    {
      "bufferView" : 115,
      "normalized" : true,
      "componentType" : 5121,
      "count" : 84,
      "type" : "VEC4"
    },
    {
      "bufferView" : 116,
      "componentType" : 5126,
      "count" : 84,
      "type" : "VEC2"
    },
    {
      "bufferView" : 117,
      "componentType" : 5126,
      "count" : 84,
      "type" : "VEC2"
    },
    {
      "bufferView" : 118,
      "componentType" : 5123,
      "count" : 7821,
      "type" : "SCALAR"
    },
    {
      "bufferView" : 119,
      "min" : [ -0.0552891, 1.52685, 0.0302322 ],
      "max" : [ 0.0536921, 1.61639, 0.0861938 ],
      "componentType" : 5126,
      "count" : 2441,
      "type" : "VEC3"
    },
    {
      "bufferView" : 120,
      "componentType" : 5126,
      "count" : 2441,
      "type" : "VEC3"
    },
    {
      "bufferView" : 121,
      "componentType" : 5126,
      "count" : 2441,
      "type" : "VEC4"
    },
    {
      "bufferView" : 122,
      "normalized" : true,
      "componentType" : 5121,
      "count" : 2441,
      "type" : "VEC4"
    },
    {
      "bufferView" : 123,
      "componentType" : 5123,
      "count" : 2441,
      "type" : "VEC4"
    },
    {
      "bufferView" : 124,
      "normalized" : true,
      "componentType" : 5121,
      "count" : 2441,
      "type" : "VEC4"
    },
    {
      "bufferView" : 125,
      "componentType" : 5126,
      "count" : 2441,
      "type" : "VEC2"
    },
    {
      "bufferView" : 126,
      "componentType" : 5126,
      "count" : 2441,
      "type" : "VEC2"
    },
    {
      "bufferView" : 127,
      "componentType" : 5123,
      "count" : 1545,
      "type" : "SCALAR"
    },
    {
      "bufferView" : 128,
      "min" : [ -0.0544477, 1.52526, 0.0313309 ],
      "max" : [ 0.0535603, 1.61582, 0.0875607 ],
      "componentType" : 5126,
      "count" : 501,
      "type" : "VEC3"
    },
    {
      "bufferView" : 129,
      "componentType" : 5126,
      "count" : 501,
      "type" : "VEC3"
    },
    {
      "bufferView" : 130,
      "componentType" : 5126,
      "count" : 501,
      "type" : "VEC4"
    },
    {
      "bufferView" : 131,
      "normalized" : true,
      "componentType" : 5121,
      "count" : 501,
      "type" : "VEC4"
    },
    {
      "bufferView" : 132,
      "componentType" : 5123,
      "count" : 501,
      "type" : "VEC4"
    },
    {
      "bufferView" : 133,
      "normalized" : true,
      "componentType" : 5121,
      "count" : 501,
      "type" : "VEC4"
    },
    {
      "bufferView" : 134,
      "componentType" : 5126,
      "count" : 501,
      "type" : "VEC2"
    },
    {
      "bufferView" : 135,
      "componentType" : 5126,
      "count" : 501,
      "type" : "VEC2"
    },
    {
      "bufferView" : 136,
      "componentType" : 5123,
      "count" : 8865,
      "type" : "SCALAR"
    },
    {
      "bufferView" : 137,
      "min" : [ -0.0726938, 1.41517, 0.00371768 ],
      "max" : [ 0.0726932, 1.62895, 0.0636934 ],
      "componentType" : 5126,
      "count" : 2838,
      "type" : "VEC3"
    },
    {
      "bufferView" : 138,
      "componentType" : 5126,
      "count" : 2838,
      "type" : "VEC3"
    },
    {
      "bufferView" : 139,
      "componentType" : 5126,
      "count" : 2838,
      "type" : "VEC4"
    },
    {
      "bufferView" : 140,
      "normalized" : true,
      "componentType" : 5121,
      "count" : 2838,
      "type" : "VEC4"
    },
    {
      "bufferView" : 141,
      "componentType" : 5123,
      "count" : 2838,
      "type" : "VEC4"
    },
    {
      "bufferView" : 142,
      "normalized" : true,
      "componentType" : 5121,
      "count" : 2838,
      "type" : "VEC4"
    },
    {
      "bufferView" : 143,
      "componentType" : 5126,
      "count" : 2838,
      "type" : "VEC2"
    },
    {
      "bufferView" : 144,
      "componentType" : 5126,
      "count" : 2838,
      "type" : "VEC2"
    },
    {
      "bufferView" : 145,
      "componentType" : 5123,
      "count" : 8265,
      "type" : "SCALAR"
    },
    {
      "bufferView" : 146,
      "min" : [ -0.0858188, 1.14381, -0.104398 ],
      "max" : [ 0.0858188, 1.47472, 0.0694977 ],
      "componentType" : 5126,
      "count" : 2349,
      "type" : "VEC3"
    },
    {
      "bufferView" : 147,
      "componentType" : 5126,
      "count" : 2349,
      "type" : "VEC3"
    },
    {
      "bufferView" : 148,
      "componentType" : 5126,
      "count" : 2349,
      "type" : "VEC4"
    },
    {
      "bufferView" : 149,
      "normalized" : true,
      "componentType" : 5121,
      "count" : 2349,
      "type" : "VEC4"
    },
    {
      "bufferView" : 150,
      "componentType" : 5123,
      "count" : 2349,
      "type" : "VEC4"
    },
    {
      "bufferView" : 151,
      "normalized" : true,
      "componentType" : 5121,
      "count" : 2349,
      "type" : "VEC4"
    },
    {
      "bufferView" : 152,
      "componentType" : 5126,
      "count" : 2349,
      "type" : "VEC2"
    },
    {
      "bufferView" : 153,
      "componentType" : 5126,
      "count" : 2349,
      "type" : "VEC2"
    }
  ]
}
