{
  "asset" : {
    "generator" : "UE Viewer (umodel) build 1544 based",
    "version" : "2.0"
  },
  "scene" : 0,
  "scenes" : [
    {
      "nodes" : [ 0 ]
    }
  ],
  "nodes" : [
    {
      "name" : "Head01",
      "mesh" : 0,
      "skin" : 0,
      "children" : [ 1 ]
    },
    {
      "name" : "FaceRoot",
      "children" : [ 2, 19, 36, 42, 51, 60, 67, 76, 82, 88, 91, 100, 109, 110, 111, 117, 118, 121 ],
      "translation" : [ -3e-08, 0, 0 ],
      "rotation" : [ -0.707107, -0.707107, 2.3486e-07, 2.3486e-07 ]
    },
    {
      "name" : "C_EyeAreaRt",
      "children" : [ 3, 5, 7, 9, 10, 11, 12, 14, 16, 17 ],
      "translation" : [ 0.0577838, -0.0313, -0.0836872 ],
      "rotation" : [ 1.98032e-07, 1.10962e-07, -2.38419e-07, -1 ]
    },
    {
      "name" : "UpperEyelidOuterBARt",
      "children" : [ 4 ],
      "translation" : [ 0.00062787, 0.00678007, 0.0433098 ],
      "rotation" : [ -0.720476, 0.167855, 0.649599, -0.175386 ]
    },
    {
      "name" : "UpperEyelidOuterBRt",
      "translation" : [ 0.0503054, -1.99676e-08, -4.76838e-08 ],
      "rotation" : [ -2.44836e-05, -0.00015568, -2.00847e-07, -1 ]
    },
    {
      "name" : "UpperEyelidInnerBARt",
      "children" : [ 6 ],
      "translation" : [ 0.000627861, 0.00678008, 0.0433062 ],
      "rotation" : [ -0.729318, -0.0240332, 0.683699, 0.00862725 ]
    },
    {
      "name" : "UpperEyelidInnerBRt",
      "translation" : [ 0.0548526, -1.43051e-08, 4.76837e-08 ],
      "rotation" : [ -0.0239266, 0.000185329, 0.000261661, -0.999714 ]
    },
    {
      "name" : "LowerEyelidOuterBARt",
      "children" : [ 8 ],
      "translation" : [ 0.000628443, 0.00678008, 0.0433099 ],
      "rotation" : [ -0.621508, 0.0822579, 0.778386, -0.032824 ]
    },
    {
      "name" : "LowerEyelidOuterBRt",
      "translation" : [ 0.0432392, -2.98023e-08, 3.8147e-08 ],
      "rotation" : [ 0.0522544, -8.60448e-05, 0.000188062, -0.998634 ]
    },
    {
      "name" : "EyeAreaLowerBRt",
      "translation" : [ -0.0144537, -0.0109601, 0.0105887 ],
      "rotation" : [ 1.8676e-07, -4.82943e-07, -1.11755e-07, -1 ]
    },
    {
      "name" : "SquintRt",
      "translation" : [ -0.00807522, -0.0200801, 0.0193022 ],
      "rotation" : [ 2.24013e-07, -3.9952e-07, 8.9407e-08, -1 ]
    },
    {
      "name" : "EyelidRt",
      "translation" : [ -0.0144898, 0.00367994, 0.00453691 ],
      "rotation" : [ 6.75511e-08, -3.4019e-07, 1.19128e-13, -1 ]
    },
    {
      "name" : "LowerEyelidLeftBARt",
      "children" : [ 13 ],
      "translation" : [ 0.000628452, 0.00678008, 0.0433098 ],
      "rotation" : [ -0.629013, -0.0035324, 0.773847, 0.0741067 ]
    },
    {
      "name" : "LowerEyelidLeftBRt",
      "translation" : [ 0.0432274, -2.38419e-09, 3.33786e-08 ],
      "rotation" : [ 0.0503113, -0.00593744, -0.000329832, -0.998716 ]
    },
    {
      "name" : "LowerEyelidInnerBARt",
      "children" : [ 15 ],
      "translation" : [ 0.000628443, 0.00678008, 0.0433099 ],
      "rotation" : [ -0.622753, 0.174668, 0.745276, -0.161965 ]
    },
    {
      "name" : "LowerEyelidInnerBRt",
      "translation" : [ 0.0432526, -6.55651e-09, -9.53672e-09 ],
      "rotation" : [ 0.230265, -0.00469444, -0.0190807, -0.97293 ]
    },
    {
      "name" : "R_EyeRt",
      "translation" : [ 0.000312676, 0.00238992, 0.0222722 ],
      "rotation" : [ -0.518146, -0.463025, 0.532716, 0.483059 ]
    },
    {
      "name" : "UpperEyelidCentralBARt",
      "children" : [ 18 ],
      "translation" : [ 0.00062787, 0.00678008, 0.0433098 ],
      "rotation" : [ -0.754705, 0.0427315, 0.651419, -0.0651746 ]
    },
    {
      "name" : "UpperEyelidCentralBRt",
      "translation" : [ 0.0432333, 3.57628e-09, -4.76837e-09 ],
      "rotation" : [ 0.0140785, -0.0252624, -0.000356031, -0.999582 ]
    },
    {
      "name" : "C_EyeAreaLf",
      "children" : [ 20, 22, 24, 26, 27, 28, 30, 32, 33, 34 ],
      "translation" : [ 0.0577828, 0.0312961, -0.0836872 ],
      "rotation" : [ 1.98032e-07, 1.10962e-07, -2.38419e-07, -1 ]
    },
    {
      "name" : "LowerEyelidOuterBALf",
      "children" : [ 21 ],
      "translation" : [ 0.000629463, -0.00673605, 0.0433097 ],
      "rotation" : [ -0.618949, -0.0409444, 0.781659, 0.0650764 ]
    },
    {
      "name" : "LowerEyelidOuterBLf",
      "translation" : [ 0.0432099, 2.86102e-08, 2.86102e-08 ],
      "rotation" : [ 1.58325e-07, 4.47035e-08, -2.44006e-07, -1 ]
    },
    {
      "name" : "UpperEyelidInnerBALf",
      "children" : [ 23 ],
      "translation" : [ 0.000628891, -0.00673595, 0.0433098 ],
      "rotation" : [ -0.728893, 0.00790413, 0.684077, -0.0262952 ]
    },
    {
      "name" : "UpperEyelidInnerBLf",
      "translation" : [ 0.0548577, 9.53674e-09, 3.33786e-08 ],
      "rotation" : [ 3.53902e-08, 1.11759e-07, 1.04366e-07, -1 ]
    },
    {
      "name" : "UpperEyelidOuterBALf",
      "children" : [ 25 ],
      "translation" : [ 0.000628877, -0.00673604, 0.0433098 ],
      "rotation" : [ -0.720543, -0.167638, 0.649641, 0.175163 ]
    },
    {
      "name" : "UpperEyelidOuterBLf",
      "translation" : [ 0.0502882, -1.01328e-08, 8.58307e-08 ],
      "rotation" : [ 3.241e-07, -1.41561e-07, 3.90573e-08, -1 ]
    },
    {
      "name" : "EyeAreaLowerBLf",
      "translation" : [ -0.0144528, 0.0109672, 0.0105887 ],
      "rotation" : [ 1.64409e-07, 4.2512e-07, -5.215e-08, -1 ]
    },
    {
      "name" : "SquintLf",
      "translation" : [ -0.00807421, 0.0200809, 0.0193023 ],
      "rotation" : [ 1.56958e-07, 3.73291e-07, 1.58329e-07, -1 ]
    },
    {
      "name" : "LowerEyelidInnerBALf",
      "children" : [ 29 ],
      "translation" : [ 0.000629473, -0.00673606, 0.0433098 ],
      "rotation" : [ -0.56884, 0.00195921, 0.765494, 0.300725 ]
    },
    {
      "name" : "LowerEyelidInnerBLf",
      "translation" : [ 0.0432097, -9.53674e-09, 9.53676e-09 ],
      "rotation" : [ 2.68221e-07, 2.08616e-07, 1.82539e-07, -1 ]
    },
    {
      "name" : "LowerEyelidLeftBALf",
      "children" : [ 31 ],
      "translation" : [ 0.000629473, -0.00673605, 0.0433097 ],
      "rotation" : [ -0.63193, 0.0428477, 0.77266, -0.0427131 ]
    },
    {
      "name" : "LowerEyelidLeftBLf",
      "translation" : [ 0.0432098, -2.38418e-08, -2.86102e-08 ],
      "rotation" : [ 1.06636e-07, -1.71363e-07, -8.27713e-08, -1 ]
    },
    {
      "name" : "L_EyeLf",
      "translation" : [ 0.000313673, -0.00238741, 0.0222721 ],
      "rotation" : [ 0.463024, 0.518148, -0.483057, -0.532717 ]
    },
    {
      "name" : "EyelidLf",
      "translation" : [ -0.0144888, -0.00368106, 0.00453683 ],
      "rotation" : [ 1.60572e-14, 5.31461e-08, -1.42109e-14, -1 ]
    },
    {
      "name" : "UpperEyelidCentralBALf",
      "children" : [ 35 ],
      "translation" : [ 0.000628786, -0.00673605, 0.0433098 ],
      "rotation" : [ -0.753721, -0.0329368, 0.651981, 0.075768 ]
    },
    {
      "name" : "UpperEyelidCentralBLf",
      "translation" : [ 0.0432098, -4.44089e-18, 1.90735e-08 ],
      "rotation" : [ 2.45869e-07, 3.7253e-08, -2.24914e-07, -1 ]
    },
    {
      "name" : "C_BrowAreaLf",
      "children" : [ 37, 38, 39, 40, 41 ],
      "translation" : [ 0.0806513, 0.0228746, -0.0892308 ],
      "rotation" : [ 1.43051e-06, 1.43051e-06, 2.04636e-12, -1 ]
    },
    {
      "name" : "BrowOuterLf",
      "translation" : [ -0.00343106, 0.0126171, 0.00449483 ],
      "rotation" : [ 0.0119032, -1.96582e-06, -1.00103e-06, -0.999929 ]
    },
    {
      "name" : "BrowSideBLf",
      "translation" : [ -0.00887854, 0.0271108, 0.01725 ],
      "rotation" : [ -0.0206785, -1.5665e-06, -3.47662e-07, -0.999786 ]
    },
    {
      "name" : "ForeheadOuterBLf",
      "translation" : [ 0.0120283, 0.0284924, 0.0185603 ],
      "rotation" : [ 0.0148433, -1.97148e-06, -3.01245e-07, -0.99989 ]
    },
    {
      "name" : "ForeheadInnerBLf",
      "translation" : [ 0.01807, -0.00286633, -0.000184307 ],
      "rotation" : [ -2.40918e-06, -1.90631e-06, -1.16229e-06, -1 ]
    },
    {
      "name" : "BrowInnerLf",
      "translation" : [ -0.00520997, -0.00910058, -0.00138009 ],
      "rotation" : [ 0.0106309, -1.82361e-06, -1.04763e-06, -0.999943 ]
    },
    {
      "name" : "C_MouthLipUpper",
      "children" : [ 43, 44, 45, 46, 47, 48, 49, 50 ],
      "translation" : [ 0.0120264, -2.212e-05, -0.091495 ],
      "rotation" : [ 1.43051e-06, 1.43051e-06, 2.04636e-12, -1 ]
    },
    {
      "name" : "LipUpperInnerBLf",
      "translation" : [ -0.00143212, 0.00605457, 0.00832929 ],
      "rotation" : [ 0.0105718, -1.72311e-06, -9.12339e-07, -0.999944 ]
    },
    {
      "name" : "LipUpperInnerBRt",
      "translation" : [ -0.00143211, -0.00600816, 0.00832921 ],
      "rotation" : [ 0.0113014, -1.99087e-06, -1.10291e-06, -0.999936 ]
    },
    {
      "name" : "LipUpperOuterBLf",
      "translation" : [ -0.00252808, 0.0111235, 0.0120344 ],
      "rotation" : [ -2.55074e-06, -1.87472e-06, -8.79166e-07, -1 ]
    },
    {
      "name" : "LipUpperOuterBRt",
      "translation" : [ -0.00252808, -0.0110779, 0.0120347 ],
      "rotation" : [ 0.0105219, -2.47294e-06, -1.35634e-06, -0.999945 ]
    },
    {
      "name" : "LipCornerBRt",
      "translation" : [ -0.00616874, -0.0143877, 0.0152967 ],
      "rotation" : [ 0.000841071, -7.59794e-06, 5.39437e-06, -1 ]
    },
    {
      "name" : "LipCornerBLf",
      "translation" : [ -0.00616875, 0.0144278, 0.0153 ],
      "rotation" : [ 0.0111185, -1.7019e-06, -6.94118e-07, -0.999938 ]
    },
    {
      "name" : "UpperLip",
      "translation" : [ -0.0011877, 2.20773e-05, 0.00604714 ],
      "rotation" : [ -2.34212e-06, -1.90625e-06, -1.10269e-06, -1 ]
    },
    {
      "name" : "UpperTeeth",
      "translation" : [ 0.00167778, 2.20347e-05, 0.0243191 ],
      "rotation" : [ -2.45338e-06, -1.54178e-06, -2.98008e-08, -1 ]
    },
    {
      "name" : "C_MouthLipLower",
      "children" : [ 52, 53, 54, 55, 56, 57, 58, 59 ],
      "translation" : [ 0.00213268, -2.212e-05, -0.086316 ],
      "rotation" : [ 1.43051e-06, 1.43051e-06, 2.04636e-12, -1 ]
    },
    {
      "name" : "LipLowerOuterBRt",
      "translation" : [ 0.00110658, -0.00874762, 0.00861638 ],
      "rotation" : [ -2.43898e-06, -2.36533e-06, -1.19209e-06, -1 ]
    },
    {
      "name" : "LipLowerInnerBRt",
      "translation" : [ 0.00105072, -0.00443766, 0.00529327 ],
      "rotation" : [ 0.0125612, -2.07841e-06, -1.10653e-06, -0.999921 ]
    },
    {
      "name" : "LipLowerInnerBLf",
      "translation" : [ 0.00105073, 0.0044842, 0.00529325 ],
      "rotation" : [ -2.49113e-06, -1.83596e-06, -8.04664e-07, -1 ]
    },
    {
      "name" : "LipLowerOuterBLf",
      "translation" : [ 0.00110658, 0.00879414, 0.00861624 ],
      "rotation" : [ -2.74445e-06, -1.96388e-06, -7.89759e-07, -1 ]
    },
    {
      "name" : "LowerLip",
      "translation" : [ 0.00169644, 2.20849e-05, 0.00467869 ],
      "rotation" : [ -2.6476e-06, -1.88777e-06, -1.3411e-06, -1 ]
    },
    {
      "name" : "RootTongue",
      "translation" : [ 0.004147, 2.21801e-05, 0.0380161 ],
      "rotation" : [ 0.000973855, 3.08629e-06, -1.75818e-05, -1 ]
    },
    {
      "name" : "LowerTeeth",
      "translation" : [ 0.00229745, 2.20661e-05, 0.0199367 ],
      "rotation" : [ -2.72856e-06, -1.60138e-06, -5.96053e-08, -1 ]
    },
    {
      "name" : "Tongue",
      "translation" : [ 0.00565835, 2.20457e-05, 0.0171726 ],
      "rotation" : [ -0.704561, -0.704554, 0.0599832, 0.0599857 ]
    },
    {
      "name" : "C_MouthAreaUpperHalf",
      "children" : [ 61, 62, 63, 64, 65, 66 ],
      "translation" : [ 0.0169438, -2.212e-05, -0.0915006 ],
      "rotation" : [ 1.43051e-06, 1.43051e-06, 2.04636e-12, -1 ]
    },
    {
      "name" : "NoseDownBRt",
      "translation" : [ -0.000885066, -0.00719792, 0.00558135 ],
      "rotation" : [ -2.3384e-06, -1.99739e-06, -1.05286e-06, -1 ]
    },
    {
      "name" : "NoseDownBLf",
      "translation" : [ -0.000885068, 0.0072458, 0.00558139 ],
      "rotation" : [ -0.0204357, -1.7292e-06, -6.55843e-07, -0.999791 ]
    },
    {
      "name" : "NasolabialUpperBRt",
      "translation" : [ -0.00382236, -0.0184969, 0.0112781 ],
      "rotation" : [ 0.00377444, 5.21623e-08, -5.45632e-06, -0.999993 ]
    },
    {
      "name" : "NasolabialUpperBLf",
      "translation" : [ -0.00382265, 0.0184618, 0.0115378 ],
      "rotation" : [ -2.56564e-06, -1.85086e-06, -8.45638e-07, -1 ]
    },
    {
      "name" : "NasolabialLowerBLf",
      "translation" : [ -0.0115286, 0.0252755, 0.0183401 ],
      "rotation" : [ -2.43099e-06, -1.64046e-06, -3.42724e-07, -1 ]
    },
    {
      "name" : "NasolabialLowerBRt",
      "translation" : [ -0.0115285, -0.025228, 0.0183401 ],
      "rotation" : [ 0.0142949, -1.31201e-06, 1.02115e-07, -0.999898 ]
    },
    {
      "name" : "C_Jaw",
      "children" : [ 68, 69, 70, 71, 72, 73, 74, 75 ],
      "translation" : [ -0.0195029, -2.212e-05, -0.0791388 ],
      "rotation" : [ 5.68434e-14, 1.42109e-13, 4.08207e-12, -1 ]
    },
    {
      "name" : "Jaw",
      "translation" : [ 0.0562354, 4.41766e-05, 0.0531984 ],
      "rotation" : [ 1.30482e-07, 2.64488e-07, -5.36176e-08, -1 ]
    },
    {
      "name" : "ChinBRt",
      "translation" : [ 0.00311041, -0.0102379, 0.00598816 ],
      "rotation" : [ 1.16571e-07, 2.07915e-07, -2.68221e-07, -1 ]
    },
    {
      "name" : "ChinBLf",
      "translation" : [ 0.0031104, 0.0102777, 0.00598819 ],
      "rotation" : [ -2.26155e-07, 1.08366e-07, -1.71363e-07, -1 ]
    },
    {
      "name" : "Chin",
      "translation" : [ 0.000727597, 2.20855e-05, 0.001863 ],
      "rotation" : [ 5.6967e-08, -2.49254e-08, -3.56675e-07, -1 ]
    },
    {
      "name" : "LowerLipLf",
      "translation" : [ 0.00787853, 0.0173621, 0.0118855 ],
      "rotation" : [ 1.53328e-07, 2.27575e-07, -9.68576e-08, -1 ]
    },
    {
      "name" : "PlatysmaLf",
      "translation" : [ 0.0188912, 0.0337456, 0.0235562 ],
      "rotation" : [ 2.27834e-07, 3.45545e-07, -3.27826e-07, -1 ]
    },
    {
      "name" : "PlatysmaRt",
      "translation" : [ 0.0188912, -0.0336979, 0.0235561 ],
      "rotation" : [ -9.99912e-08, -3.45615e-07, -2.38422e-07, -1 ]
    },
    {
      "name" : "LowerLipRt",
      "translation" : [ 0.00787853, -0.0173179, 0.0118854 ],
      "rotation" : [ -2.54855e-08, -3.89326e-07, -2.98023e-07, -1 ]
    },
    {
      "name" : "C_MouthLower",
      "children" : [ 77, 78, 79, 80, 81 ],
      "translation" : [ -0.00511359, -2.212e-05, -0.0800705 ],
      "rotation" : [ 5.68434e-14, 1.42109e-13, 4.08207e-12, -1 ]
    },
    {
      "name" : "ChinUpperBLf",
      "translation" : [ 0.00350778, 0.0137021, 0.00312539 ],
      "rotation" : [ -1.29298e-07, 3.31636e-07, -2.01166e-07, -1 ]
    },
    {
      "name" : "ChinUpperBRt",
      "translation" : [ 0.0035078, -0.0136604, 0.00312535 ],
      "rotation" : [ 1.61275e-07, 4.74195e-08, -3.7998e-07, -1 ]
    },
    {
      "name" : "ChinCt",
      "translation" : [ 0.00191752, 2.20805e-05, -0.000257034 ],
      "rotation" : [ 1.0167e-07, -1.01578e-07, 2.94382e-08, -1 ]
    },
    {
      "name" : "CheekLowerBLf",
      "translation" : [ 0.000150339, 0.0206921, 0.0100766 ],
      "rotation" : [ 2.43231e-07, 3.45545e-07, -1.49012e-07, -1 ]
    },
    {
      "name" : "CheekLowerBRt",
      "translation" : [ 0.000150041, -0.020644, 0.0100765 ],
      "rotation" : [ 2.35781e-07, -3.29722e-07, -2.53319e-07, -1 ]
    },
    {
      "name" : "C_Nose",
      "children" : [ 83, 84, 85, 86, 87 ],
      "translation" : [ 0.0197441, -2.213e-05, -0.0882037 ],
      "rotation" : [ 1.43051e-06, 1.43051e-06, 2.04636e-12, -1 ]
    },
    {
      "name" : "NoseWingRt",
      "translation" : [ 0.0162752, -0.00770789, 0.00160403 ],
      "rotation" : [ -2.32722e-06, -1.89141e-06, -1.06107e-06, -1 ]
    },
    {
      "name" : "NoseWingLf",
      "translation" : [ 0.0162752, 0.00775301, 0.00160405 ],
      "rotation" : [ -2.52466e-06, -1.90631e-06, -1.09087e-06, -1 ]
    },
    {
      "name" : "NoseCore",
      "translation" : [ 0.0086145, 2.21585e-05, 0.00186261 ],
      "rotation" : [ 0.0125213, -1.9863e-06, -8.10342e-07, -0.999922 ]
    },
    {
      "name" : "NoseLf",
      "translation" : [ 0.0072883, 0.00603841, -0.00162932 ],
      "rotation" : [ -2.51309e-06, -1.75266e-06, -1.29272e-06, -1 ]
    },
    {
      "name" : "NoseRt",
      "translation" : [ 0.00728829, -0.00599788, -0.00162933 ],
      "rotation" : [ -2.41264e-06, -1.92121e-06, -1.12859e-06, -1 ]
    },
    {
      "name" : "C_BrowAreaCt",
      "children" : [ 89, 90 ],
      "translation" : [ 0.0631089, -2.211e-05, -0.092966 ],
      "rotation" : [ 1.43051e-06, 1.43051e-06, 2.04636e-12, -1 ]
    },
    {
      "name" : "BrowCt",
      "translation" : [ -3.05223e-05, 2.20491e-05, 0.00200047 ],
      "rotation" : [ -2.66299e-06, -1.91194e-06, -8.64267e-07, -1 ]
    },
    {
      "name" : "BrowProcerusCt",
      "translation" : [ 0.00954987, 2.21106e-05, 0.00115685 ],
      "rotation" : [ -2.55869e-06, -1.8477e-06, -1.13249e-06, -1 ]
    },
    {
      "name" : "C_CheekLf",
      "children" : [ 92, 93, 94, 95, 96, 97, 98, 99 ],
      "translation" : [ 0.0317436, 0.0387518, -0.0765652 ],
      "rotation" : [ 1.43051e-06, 1.43051e-06, 2.04636e-12, -1 ]
    },
    {
      "name" : "CheekLf",
      "translation" : [ 0.00218748, -0.00846244, -0.00221415 ],
      "rotation" : [ -2.44876e-06, -1.79367e-06, -7.03728e-07, -1 ]
    },
    {
      "name" : "CheekSideBLf",
      "translation" : [ 0.0048634, 0.00713765, 0.00672508 ],
      "rotation" : [ -2.53025e-06, -1.67917e-06, -2.70081e-07, -1 ]
    },
    {
      "name" : "ParotidSizeBLf",
      "translation" : [ 0.00396881, 0.0184057, 0.034103 ],
      "rotation" : [ -2.59538e-06, -1.58176e-06, -1.41557e-07, -1 ]
    },
    {
      "name" : "CheekInnerBLf",
      "translation" : [ 0.00687967, -0.0221969, -0.00467498 ],
      "rotation" : [ 0.0102301, -2.00964e-06, -1.06556e-06, -0.999948 ]
    },
    {
      "name" : "BuccalLf",
      "translation" : [ -0.00340597, 0.0097708, 0.0162282 ],
      "rotation" : [ -2.60848e-06, -1.73661e-06, 5.96077e-08, -1 ]
    },
    {
      "name" : "ZygomaticLf",
      "translation" : [ -0.00632459, -0.0188281, -0.00425951 ],
      "rotation" : [ -2.45761e-06, -1.84207e-06, -1.10268e-06, -1 ]
    },
    {
      "name" : "BuccalCoreLf",
      "translation" : [ -0.0127486, -0.0130394, -0.00181001 ],
      "rotation" : [ -2.60256e-06, -1.88443e-06, -1.10269e-06, -1 ]
    },
    {
      "name" : "NasolabialOuterBLf",
      "translation" : [ -0.0100522, 0.00131742, 0.00654701 ],
      "rotation" : [ 0.0134899, -1.73874e-06, -4.92888e-07, -0.999909 ]
    },
    {
      "name" : "C_CheekRt",
      "children" : [ 101, 102, 103, 104, 105, 106, 107, 108 ],
      "translation" : [ 0.0317436, -0.03875, -0.0765652 ],
      "rotation" : [ 1.43051e-06, 1.43051e-06, 2.04636e-12, -1 ]
    },
    {
      "name" : "ParotidSizeBRt",
      "translation" : [ 0.0039688, -0.0184101, 0.0341029 ],
      "rotation" : [ -2.33752e-06, -4.23888e-06, -8.9411e-08, -1 ]
    },
    {
      "name" : "CheekInnerBRt",
      "translation" : [ 0.00687971, 0.0222, -0.00467492 ],
      "rotation" : [ 0.0131874, -2.04544e-06, 8.22461e-07, -0.999913 ]
    },
    {
      "name" : "CheekRt",
      "translation" : [ 0.00218753, 0.00846002, -0.00221414 ],
      "rotation" : [ -2.50044e-06, -1.81577e-06, 4.25152e-07, -1 ]
    },
    {
      "name" : "CheekSideBRt",
      "translation" : [ 0.00486345, -0.00714, 0.00672502 ],
      "rotation" : [ 0.0142935, -1.69463e-06, 6.33273e-08, -0.999898 ]
    },
    {
      "name" : "BuccalRt",
      "translation" : [ -0.00340592, -0.00977003, 0.0162281 ],
      "rotation" : [ -2.37937e-06, -4.19929e-06, -3.42731e-07, -1 ]
    },
    {
      "name" : "ZygomaticRt",
      "translation" : [ -0.00632454, 0.01883, -0.00425939 ],
      "rotation" : [ 0.0116401, -1.99435e-06, 6.86497e-07, -0.999932 ]
    },
    {
      "name" : "BuccalCoreRt",
      "translation" : [ -0.0127485, 0.01304, -0.00181 ],
      "rotation" : [ -2.39834e-06, -2.06708e-06, 8.1584e-07, -1 ]
    },
    {
      "name" : "NasolabialOuterBRt",
      "translation" : [ -0.0100521, -0.00131998, 0.00654699 ],
      "rotation" : [ 0.0124304, -3.84081e-06, -3.16e-07, -0.999923 ]
    },
    {
      "name" : "C_EarLf",
      "translation" : [ 0.0492591, 0.0615996, -0.0190885 ],
      "rotation" : [ 5.64708e-08, 1.81862e-06, -6.29574e-12, -1 ]
    },
    {
      "name" : "C_EarRt",
      "translation" : [ 0.0492638, -0.0615999, -0.0190872 ],
      "rotation" : [ 5.18408e-07, 1.35507e-06, -5.06644e-07, -1 ]
    },
    {
      "name" : "C_BrowAreaRt",
      "children" : [ 112, 113, 114, 115, 116 ],
      "translation" : [ 0.0806513, -0.02287, -0.0892308 ],
      "rotation" : [ 1.43051e-06, 1.43051e-06, 2.04636e-12, -1 ]
    },
    {
      "name" : "ForeheadOuterBRt",
      "translation" : [ 0.0120283, -0.0285, 0.0185602 ],
      "rotation" : [ 0.00979897, -2.18181e-06, -1.36256e-06, -0.999952 ]
    },
    {
      "name" : "BrowInnerRt",
      "translation" : [ -0.00520997, 0.00910003, -0.00138004 ],
      "rotation" : [ 0.0127463, -2.11144e-06, -8.74491e-07, -0.999919 ]
    },
    {
      "name" : "BrowOuterRt",
      "translation" : [ -0.00343102, -0.01262, 0.00449482 ],
      "rotation" : [ -2.40475e-06, -2.01062e-06, -1.07516e-06, -1 ]
    },
    {
      "name" : "ForeheadInnerBRt",
      "translation" : [ 0.01807, 0.00286, -0.000184288 ],
      "rotation" : [ -2.45388e-06, -1.96592e-06, -1.11479e-06, -1 ]
    },
    {
      "name" : "BrowSideBRt",
      "translation" : [ -0.00887859, -0.02712, 0.01725 ],
      "rotation" : [ 0.0134584, -2.31878e-06, -1.134e-06, -0.999909 ]
    },
    {
      "name" : "FaceNeck",
      "translation" : [ 0, 3e-08, -1.87583e-14 ],
      "rotation" : [ 1.15817e-20, -6.77626e-21, -1.06581e-14, -1 ]
    },
    {
      "name" : "C_GillRf",
      "children" : [ 119, 120 ],
      "translation" : [ 0.0113241, -0.03301, -0.0676423 ],
      "rotation" : [ 0.5, 0.5, -0.5, -0.5 ]
    },
    {
      "name" : "MasseterCoreRt",
      "translation" : [ -0.01626, -0.0191371, -0.00614156 ],
      "rotation" : [ -0.499999, -0.499998, 0.500001, -0.500001 ]
    },
    {
      "name" : "LaughingRt",
      "translation" : [ -0.00206004, -0.00398565, 0.00508314 ],
      "rotation" : [ -0.499999, -0.499998, 0.500001, -0.500002 ]
    },
    {
      "name" : "C_GillLf",
      "children" : [ 122, 123 ],
      "translation" : [ 0.0113241, 0.0330126, -0.0676423 ],
      "rotation" : [ 0.5, 0.5, -0.5, -0.5 ]
    },
    {
      "name" : "LaughingLf",
      "translation" : [ 0.00206143, -0.0039856, 0.00508354 ],
      "rotation" : [ -0.5, -0.5, 0.5, -0.5 ]
    },
    {
      "name" : "MasseterCoreLf",
      "translation" : [ 0.0162619, -0.019137, -0.00614124 ],
      "rotation" : [ -0.5, -0.5, 0.5, -0.5 ]
    }
  ],
  "skins" : [
    {
      "inverseBindMatrices" : 0,
      "skeleton" : 1,
      "joints" : [
        1,2,3,4,5,6,7,8,9,10,11,12,13,14,15,16,17,18,19,20,21,22,23,24,25,26,27,28,29,30,31,32,
        33,34,35,36,37,38,39,40,41,42,43,44,45,46,47,48,49,50,51,52,53,54,55,56,57,58,59,60,61,62,63,64,
        65,66,67,68,69,70,71,72,73,74,75,76,77,78,79,80,81,82,83,84,85,86,87,88,89,90,91,92,93,94,95,96,
        97,98,99,100,101,102,103,104,105,106,107,108,109,110,111,112,113,114,115,116,117,118,119,120,121,122,123
      ]
    }
  ],
  "materials" : [
    {
      "name" : "MI_Mouth",
      "pbrMetallicRoughness" : {
        "baseColorFactor" : [ 0.3, 0.3, 0.3, 1.0 ],
        "metallicFactor" : 0.1,
        "roughnessFactor" : 0.5
      }
    },
    {
      "name" : "MI_EyeOcclusion",
      "pbrMetallicRoughness" : {
        "baseColorFactor" : [ 0.9, 0.3, 0.3, 1.0 ],
        "metallicFactor" : 0.1,
        "roughnessFactor" : 0.5
      }
    },
    {
      "name" : "MI_EyeTearDuct",
      "pbrMetallicRoughness" : {
        "baseColorFactor" : [ 0.3, 0.9, 0.3, 1.0 ],
        "metallicFactor" : 0.1,
        "roughnessFactor" : 0.5
      }
    },
    {
      "name" : "MI_CustomFace_NoBakedNormalTex_Female_Head01",
      "pbrMetallicRoughness" : {
        "baseColorFactor" : [ 0.3, 0.3, 0.9, 1.0 ],
        "metallicFactor" : 0.1,
        "roughnessFactor" : 0.5
      }
    },
    {
      "name" : "MI_CustomFace_NoBakedNormalTex_Female_Head01",
      "pbrMetallicRoughness" : {
        "baseColorFactor" : [ 0.9, 0.9, 0.9, 1.0 ],
        "metallicFactor" : 0.1,
        "roughnessFactor" : 0.5
      }
    },
    {
      "name" : "MI_eyelash05",
      "pbrMetallicRoughness" : {
        "baseColorFactor" : [ 0.9, 0.9, 0.3, 1.0 ],
        "metallicFactor" : 0.1,
        "roughnessFactor" : 0.5
      }
    },
    {
      "name" : "MI_CustomEye",
      "pbrMetallicRoughness" : {
        "baseColorFactor" : [ 0.9, 0.3, 0.9, 1.0 ],
        "metallicFactor" : 0.1,
        "roughnessFactor" : 0.5
      }
    }
  ],
  "meshes" : [
    {
      "primitives" : [
        {
          "attributes" : {
            "POSITION" : 2,
            "NORMAL" : 3,
            "TANGENT" : 4,
            "COLOR_0" : 5,
            "JOINTS_0" : 6,
            "WEIGHTS_0" : 7,
            "TEXCOORD_0" : 8,
            "TEXCOORD_1" : 9
          },
          "indices" : 1,
          "material" : 0
        },
        {
          "attributes" : {
            "POSITION" : 11,
            "NORMAL" : 12,
            "TANGENT" : 13,
            "COLOR_0" : 14,
            "JOINTS_0" : 15,
            "WEIGHTS_0" : 16,
            "TEXCOORD_0" : 17,
            "TEXCOORD_1" : 18
          },
          "indices" : 10,
          "material" : 1
        },
        {
          "attributes" : {
            "POSITION" : 20,
            "NORMAL" : 21,
            "TANGENT" : 22,
            "COLOR_0" : 23,
            "JOINTS_0" : 24,
            "WEIGHTS_0" : 25,
            "TEXCOORD_0" : 26,
            "TEXCOORD_1" : 27
          },
          "indices" : 19,
          "material" : 2
        },
        {
          "attributes" : {
            "POSITION" : 29,
            "NORMAL" : 30,
            "TANGENT" : 31,
            "COLOR_0" : 32,
            "JOINTS_0" : 33,
            "WEIGHTS_0" : 34,
            "TEXCOORD_0" : 35,
            "TEXCOORD_1" : 36
          },
          "indices" : 28,
          "material" : 3
        },
        {
          "attributes" : {
            "POSITION" : 38,
            "NORMAL" : 39,
            "TANGENT" : 40,
            "COLOR_0" : 41,
            "JOINTS_0" : 42,
            "WEIGHTS_0" : 43,
            "TEXCOORD_0" : 44,
            "TEXCOORD_1" : 45
          },
          "indices" : 37,
          "material" : 4
        },
        {
          "attributes" : {
            "POSITION" : 47,
            "NORMAL" : 48,
            "TANGENT" : 49,
            "COLOR_0" : 50,
            "JOINTS_0" : 51,
            "WEIGHTS_0" : 52,
            "TEXCOORD_0" : 53,
            "TEXCOORD_1" : 54
          },
          "indices" : 46,
          "material" : 5
        },
        {
          "attributes" : {
            "POSITION" : 56,
            "NORMAL" : 57,
            "TANGENT" : 58,
            "COLOR_0" : 59,
            "JOINTS_0" : 60,
            "WEIGHTS_0" : 61,
            "TEXCOORD_0" : 62,
            "TEXCOORD_1" : 63
          },
          "indices" : 55,
          "material" : 6
        }
      ],
      "name" : "Head01"
    }
  ],
  "buffers" : [
    {
      "uri" : "Head01.bin",
      "byteLength" : 883228
    }
  ],
  "bufferViews" : [
    {
      "buffer" : 0,
      "byteOffset" : 0,
      "byteLength" : 7872
    },
    {
      "buffer" : 0,
      "byteOffset" : 7872,
      "byteLength" : 10752
    },
    {
      "buffer" : 0,
      "byteOffset" : 18624,
      "byteLength" : 11988
    },
    {
      "buffer" : 0,
      "byteOffset" : 30612,
      "byteLength" : 11988
    },
    {
      "buffer" : 0,
      "byteOffset" : 42600,
      "byteLength" : 15984
    },
    {
      "buffer" : 0,
      "byteOffset" : 58584,
      "byteLength" : 3996
    },
    {
      "buffer" : 0,
      "byteOffset" : 62580,
      "byteLength" : 7992
    },
    {
      "buffer" : 0,
      "byteOffset" : 70572,
      "byteLength" : 3996
    },
    {
      "buffer" : 0,
      "byteOffset" : 74568,
      "byteLength" : 7992
    },
    {
      "buffer" : 0,
      "byteOffset" : 82560,
      "byteLength" : 7992
    },
    {
      "buffer" : 0,
      "byteOffset" : 90552,
      "byteLength" : 3360
    },
    {
      "buffer" : 0,
      "byteOffset" : 93912,
      "byteLength" : 3888
    },
    {
      "buffer" : 0,
      "byteOffset" : 97800,
      "byteLength" : 3888
    },
    {
      "buffer" : 0,
      "byteOffset" : 101688,
      "byteLength" : 5184
    },
    {
      "buffer" : 0,
      "byteOffset" : 106872,
      "byteLength" : 1296
    },
    {
      "buffer" : 0,
      "byteOffset" : 108168,
      "byteLength" : 2592
    },
    {
      "buffer" : 0,
      "byteOffset" : 110760,
      "byteLength" : 1296
    },
    {
      "buffer" : 0,
      "byteOffset" : 112056,
      "byteLength" : 2592
    },
    {
      "buffer" : 0,
      "byteOffset" : 114648,
      "byteLength" : 2592
    },
    {
      "buffer" : 0,
      "byteOffset" : 117240,
      "byteLength" : 2388
    },
    {
      "buffer" : 0,
      "byteOffset" : 119628,
      "byteLength" : 3432
    },
    {
      "buffer" : 0,
      "byteOffset" : 123060,
      "byteLength" : 3432
    },
    {
      "buffer" : 0,
      "byteOffset" : 126492,
      "byteLength" : 4576
    },
    {
      "buffer" : 0,
      "byteOffset" : 131068,
      "byteLength" : 1144
    },
    {
      "buffer" : 0,
      "byteOffset" : 132212,
      "byteLength" : 2288
    },
    {
      "buffer" : 0,
      "byteOffset" : 134500,
      "byteLength" : 1144
    },
    {
      "buffer" : 0,
      "byteOffset" : 135644,
      "byteLength" : 2288
    },
    {
      "buffer" : 0,
      "byteOffset" : 137932,
      "byteLength" : 2288
    },
    {
      "buffer" : 0,
      "byteOffset" : 140220,
      "byteLength" : 32324
    },
    {
      "buffer" : 0,
      "byteOffset" : 172544,
      "byteLength" : 34872
    },
    {
      "buffer" : 0,
      "byteOffset" : 207416,
      "byteLength" : 34872
    },
    {
      "buffer" : 0,
      "byteOffset" : 242288,
      "byteLength" : 46496
    },
    {
      "buffer" : 0,
      "byteOffset" : 288784,
      "byteLength" : 11624
    },
    {
      "buffer" : 0,
      "byteOffset" : 300408,
      "byteLength" : 23248
    },
    {
      "buffer" : 0,
      "byteOffset" : 323656,
      "byteLength" : 11624
    },
    {
      "buffer" : 0,
      "byteOffset" : 335280,
      "byteLength" : 23248
    },
    {
      "buffer" : 0,
      "byteOffset" : 358528,
      "byteLength" : 23248
    },
    {
      "buffer" : 0,
      "byteOffset" : 381776,
      "byteLength" : 32324
    },
    {
      "buffer" : 0,
      "byteOffset" : 414100,
      "byteLength" : 34872
    },
    {
      "buffer" : 0,
      "byteOffset" : 448972,
      "byteLength" : 34872
    },
    {
      "buffer" : 0,
      "byteOffset" : 483844,
      "byteLength" : 46496
    },
    {
      "buffer" : 0,
      "byteOffset" : 530340,
      "byteLength" : 11624
    },
    {
      "buffer" : 0,
      "byteOffset" : 541964,
      "byteLength" : 23248
    },
    {
      "buffer" : 0,
      "byteOffset" : 565212,
      "byteLength" : 11624
    },
    {
      "buffer" : 0,
      "byteOffset" : 576836,
      "byteLength" : 23248
    },
    {
      "buffer" : 0,
      "byteOffset" : 600084,
      "byteLength" : 23248
    },
    {
      "buffer" : 0,
      "byteOffset" : 623332,
      "byteLength" : 8136
    },
    {
      "buffer" : 0,
      "byteOffset" : 631468,
      "byteLength" : 11832
    },
    {
      "buffer" : 0,
      "byteOffset" : 643300,
      "byteLength" : 11832
    },
    {
      "buffer" : 0,
      "byteOffset" : 655132,
      "byteLength" : 15776
    },
    {
      "buffer" : 0,
      "byteOffset" : 670908,
      "byteLength" : 3944
    },
    {
      "buffer" : 0,
      "byteOffset" : 674852,
      "byteLength" : 7888
    },
    {
      "buffer" : 0,
      "byteOffset" : 682740,
      "byteLength" : 3944
    },
    {
      "buffer" : 0,
      "byteOffset" : 686684,
      "byteLength" : 7888
    },
    {
      "buffer" : 0,
      "byteOffset" : 694572,
      "byteLength" : 7888
    },
    {
      "buffer" : 0,
      "byteOffset" : 702460,
      "byteLength" : 24960
    },
    {
      "buffer" : 0,
      "byteOffset" : 727420,
      "byteLength" : 25968
    },
    {
      "buffer" : 0,
      "byteOffset" : 753388,
      "byteLength" : 25968
    },
    {
      "buffer" : 0,
      "byteOffset" : 779356,
      "byteLength" : 34624
    },
    {
      "buffer" : 0,
      "byteOffset" : 813980,
      "byteLength" : 8656
    },
    {
      "buffer" : 0,
      "byteOffset" : 822636,
      "byteLength" : 17312
    },
    {
      "buffer" : 0,
      "byteOffset" : 839948,
      "byteLength" : 8656
    },
    {
      "buffer" : 0,
      "byteOffset" : 848604,
      "byteLength" : 17312
    },
    {
      "buffer" : 0,
      "byteOffset" : 865916,
      "byteLength" : 17312
    }
  ],
  "accessors" : [
    {
      "bufferView" : 0,
      "componentType" : 5126,
      "count" : 123,
      "type" : "MAT4"
    },
    {
      "bufferView" : 1,
      "componentType" : 5123,
      "count" : 5376,
      "type" : "SCALAR"
    },
    {
      "bufferView" : 2,
      "min" : [ -0.0206329, -0.00332214, 0.0360764 ],
      "max" : [ 0.020633, 0.0180869, 0.0776404 ],
      "componentType" : 5126,
      "count" : 999,
      "type" : "VEC3"
    },
    {
      "bufferView" : 3,
      "componentType" : 5126,
      "count" : 999,
      "type" : "VEC3"
    },
    {
      "bufferView" : 4,
      "componentType" : 5126,
      "count" : 999,
      "type" : "VEC4"
    },
    {
      "bufferView" : 5,
      "normalized" : true,
      "componentType" : 5121,
      "count" : 999,
      "type" : "VEC4"
    },
    {
      "bufferView" : 6,
      "componentType" : 5123,
      "count" : 999,
      "type" : "VEC4"
    },
    {
      "bufferView" : 7,
      "normalized" : true,
      "componentType" : 5121,
      "count" : 999,
      "type" : "VEC4"
    },
    {
      "bufferView" : 8,
      "componentType" : 5126,
      "count" : 999,
      "type" : "VEC2"
    },
    {
      "bufferView" : 9,
      "componentType" : 5126,
      "count" : 999,
      "type" : "VEC2"
    },
    {
      "bufferView" : 10,
      "componentType" : 5123,
      "count" : 1680,
      "type" : "SCALAR"
    },
    {
      "bufferView" : 11,
      "min" : [ -0.0444805, 0.0500401, 0.0693301 ],
      "max" : [ 0.0444807, 0.0637955, 0.0789607 ],
      "componentType" : 5126,
      "count" : 324,
      "type" : "VEC3"
    },
    {
      "bufferView" : 12,
      "componentType" : 5126,
      "count" : 324,
      "type" : "VEC3"
    },
    {
      "bufferView" : 13,
      "componentType" : 5126,
      "count" : 324,
      "type" : "VEC4"
    },
    {
      "bufferView" : 14,
      "normalized" : true,
      "componentType" : 5121,
      "count" : 324,
      "type" : "VEC4"
    },
    {
      "bufferView" : 15,
      "componentType" : 5123,
      "count" : 324,
      "type" : "VEC4"
    },
    {
      "bufferView" : 16,
      "normalized" : true,
      "componentType" : 5121,
      "count" : 324,
      "type" : "VEC4"
    },
    {
      "bufferView" : 17,
      "componentType" : 5126,
      "count" : 324,
      "type" : "VEC2"
    },
    {
      "bufferView" : 18,
      "componentType" : 5126,
      "count" : 324,
      "type" : "VEC2"
    },
    {
      "bufferView" : 19,
      "componentType" : 5123,
      "count" : 1194,
      "type" : "SCALAR"
    },
    {
      "bufferView" : 20,
      "min" : [ -0.0454186, 0.0497429, 0.0693301 ],
      "max" : [ 0.0454187, 0.0638736, 0.0790946 ],
      "componentType" : 5126,
      "count" : 286,
      "type" : "VEC3"
    },
    {
      "bufferView" : 21,
      "componentType" : 5126,
      "count" : 286,
      "type" : "VEC3"
    },
    {
      "bufferView" : 22,
      "componentType" : 5126,
      "count" : 286,
      "type" : "VEC4"
    },
    {
      "bufferView" : 23,
      "normalized" : true,
      "componentType" : 5121,
      "count" : 286,
      "type" : "VEC4"
    },
    {
      "bufferView" : 24,
      "componentType" : 5123,
      "count" : 286,
      "type" : "VEC4"
    },
    {
      "bufferView" : 25,
      "normalized" : true,
      "componentType" : 5121,
      "count" : 286,
      "type" : "VEC4"
    },
    {
      "bufferView" : 26,
      "componentType" : 5126,
      "count" : 286,
      "type" : "VEC2"
    },
    {
      "bufferView" : 27,
      "componentType" : 5126,
      "count" : 286,
      "type" : "VEC2"
    },
    {
      "bufferView" : 28,
      "componentType" : 5123,
      "count" : 16161,
      "type" : "SCALAR"
    },
    {
      "bufferView" : 29,
      "min" : [ -0.078791, -0.0235979, -0.0700038 ],
      "max" : [ 1.04607e-07, 0.167452, 0.100128 ],
      "componentType" : 5126,
      "count" : 2906,
      "type" : "VEC3"
    },
    {
      "bufferView" : 30,
      "componentType" : 5126,
      "count" : 2906,
      "type" : "VEC3"
    },
    {
      "bufferView" : 31,
      "componentType" : 5126,
      "count" : 2906,
      "type" : "VEC4"
    },
    {
      "bufferView" : 32,
      "normalized" : true,
      "componentType" : 5121,
      "count" : 2906,
      "type" : "VEC4"
    },
    {
      "bufferView" : 33,
      "componentType" : 5123,
      "count" : 2906,
      "type" : "VEC4"
    },
    {
      "bufferView" : 34,
      "normalized" : true,
      "componentType" : 5121,
      "count" : 2906,
      "type" : "VEC4"
    },
    {
      "bufferView" : 35,
      "componentType" : 5126,
      "count" : 2906,
      "type" : "VEC2"
    },
    {
      "bufferView" : 36,
      "componentType" : 5126,
      "count" : 2906,
      "type" : "VEC2"
    },
    {
      "bufferView" : 37,
      "componentType" : 5123,
      "count" : 16161,
      "type" : "SCALAR"
    },
    {
      "bufferView" : 38,
      "min" : [ -1.67163e-07, -0.0235979, -0.0700038 ],
      "max" : [ 0.0787909, 0.167452, 0.100128 ],
      "componentType" : 5126,
      "count" : 2906,
      "type" : "VEC3"
    },
    {
      "bufferView" : 39,
      "componentType" : 5126,
      "count" : 2906,
      "type" : "VEC3"
    },
    {
      "bufferView" : 40,
      "componentType" : 5126,
      "count" : 2906,
      "type" : "VEC4"
    },
    {
      "bufferView" : 41,
      "normalized" : true,
      "componentType" : 5121,
      "count" : 2906,
      "type" : "VEC4"
    },
    {
      "bufferView" : 42,
      "componentType" : 5123,
      "count" : 2906,
      "type" : "VEC4"
    },
    {
      "bufferView" : 43,
      "normalized" : true,
      "componentType" : 5121,
      "count" : 2906,
      "type" : "VEC4"
    },
    {
      "bufferView" : 44,
      "componentType" : 5126,
      "count" : 2906,
      "type" : "VEC2"
    },
    {
      "bufferView" : 45,
      "componentType" : 5126,
      "count" : 2906,
      "type" : "VEC2"
    },
    {
      "bufferView" : 46,
      "componentType" : 5123,
      "count" : 4068,
      "type" : "SCALAR"
    },
    {
      "bufferView" : 47,
      "min" : [ -0.0599703, 0.0445619, 0.0667708 ],
      "max" : [ 0.0599704, 0.0688103, 0.0886084 ],
      "componentType" : 5126,
      "count" : 986,
      "type" : "VEC3"
    },
    {
      "bufferView" : 48,
      "componentType" : 5126,
      "count" : 986,
      "type" : "VEC3"
    },
    {
      "bufferView" : 49,
      "componentType" : 5126,
      "count" : 986,
      "type" : "VEC4"
    },
    {
      "bufferView" : 50,
      "normalized" : true,
      "componentType" : 5121,
      "count" : 986,
      "type" : "VEC4"
    },
    {
      "bufferView" : 51,
      "componentType" : 5123,
      "count" : 986,
      "type" : "VEC4"
    },
    {
      "bufferView" : 52,
      "normalized" : true,
      "componentType" : 5121,
      "count" : 986,
      "type" : "VEC4"
    },
    {
      "bufferView" : 53,
      "componentType" : 5126,
      "count" : 986,
      "type" : "VEC2"
    },
    {
      "bufferView" : 54,
      "componentType" : 5126,
      "count" : 986,
      "type" : "VEC2"
    },
    {
      "bufferView" : 55,
      "componentType" : 5123,
      "count" : 12480,
      "type" : "SCALAR"
    },
    {
      "bufferView" : 56,
      "min" : [ -0.0458817, 0.0411752, 0.0442533 ],
      "max" : [ 0.0458818, 0.0750899, 0.0784077 ],
      "componentType" : 5126,
      "count" : 2164,
      "type" : "VEC3"
    },
    {
      "bufferView" : 57,
      "componentType" : 5126,
      "count" : 2164,
      "type" : "VEC3"
    },
    {
      "bufferView" : 58,
      "componentType" : 5126,
      "count" : 2164,
      "type" : "VEC4"
    },
    {
      "bufferView" : 59,
      "normalized" : true,
      "componentType" : 5121,
      "count" : 2164,
      "type" : "VEC4"
    },
    {
      "bufferView" : 60,
      "componentType" : 5123,
      "count" : 2164,
      "type" : "VEC4"
    },
    {
      "bufferView" : 61,
      "normalized" : true,
      "componentType" : 5121,
      "count" : 2164,
      "type" : "VEC4"
    },
    {
      "bufferView" : 62,
      "componentType" : 5126,
      "count" : 2164,
      "type" : "VEC2"
    },
    {
      "bufferView" : 63,
      "componentType" : 5126,
      "count" : 2164,
      "type" : "VEC2"
    }
  ]
}
